M48
INCH,TZ
T10C0.032
T11C0.039
T12C0.126
%
T10
X008006Y026069
X009006Y026069
X011006Y027069
X013006Y027069
X014006Y025069
X015006Y024069
X017006Y022069
X017006Y020069
X018006Y020069
X018006Y018069
X017006Y018069
X016006Y018069
X015006Y018069
X014006Y018069
X014006Y019069
X013006Y019069
X012006Y020069
X012006Y021069
X011006Y021069
X010006Y020069
X009474Y018832
X009474Y017832
X009474Y016832
X009474Y015832
X009474Y014832
X016006Y016069
X019006Y017069
X020006Y018069
X020006Y019069
X022006Y020069
X022006Y021069
X023006Y022069
X024006Y023069
X024006Y025069
X023006Y025069
X022006Y025069
X021006Y025069
X020006Y025069
X020006Y023069
X021006Y023069
X018006Y024069
X019006Y029069
X020006Y030069
X021006Y030069
X022006Y029069
X023006Y029069
X024006Y027069
X027006Y030069
X034006Y028069
X039006Y029069
X041006Y029069
X043006Y027069
X044006Y026069
X041006Y023069
X041006Y022069
X041006Y021069
X041006Y020069
X039006Y020069
X039006Y021069
X039006Y022069
X039006Y023069
X036006Y022069
X036006Y021069
X036006Y020069
X036006Y019069
X034006Y019069
X033006Y020069
X032006Y021069
X034006Y022069
X030006Y020069
X029006Y020069
X031006Y018069
X034006Y016069
X036006Y016069
X036006Y015069
X036006Y014069
X034006Y013069
X032006Y015069
X029006Y012069
X028006Y010069
X029006Y009069
X031006Y010069
X034006Y009069
X036006Y009069
X038006Y009069
X038006Y014069
X038006Y015069
X038006Y016069
X038006Y017069
X040006Y017069
X040006Y016069
X040006Y015069
X040006Y014069
X043006Y017069
X044006Y016069
X028006Y023069
X022006Y013069
X021006Y013069
X024006Y011069
X022006Y010069
X021006Y009069
X020006Y010069
X020006Y007069
X021006Y007069
X024006Y007069
X025006Y007069
X027006Y007069
X028006Y007069
X027006Y009069
X025006Y009069
X012006Y009069
X011006Y007069
X008006Y021069
T11
X007474Y018832
X008474Y018832
X008474Y017832
X007474Y017832
X007474Y016832
X007474Y015832
X008474Y015832
X008474Y016832
X008474Y014832
X007474Y014832
X042710Y013911
X042710Y012911
X043710Y012911
X043710Y013911
X043710Y011911
X042710Y011911
X042710Y010911
X043710Y010911
X043710Y009911
X042710Y009911
X042710Y019360
X043710Y019360
X043710Y020360
X042710Y020360
X042710Y021360
X043710Y021360
X043710Y022360
X042710Y022360
X042710Y023360
X043710Y023360
T12
X007974Y004037
X043407Y004037
X043407Y029628
X007974Y029628
M30

