G75*
%MOIN*%
%OFA0B0*%
%FSLAX24Y24*%
%IPPOS*%
%LPD*%
%AMOC8*
5,1,8,0,0,1.08239X$1,22.5*
%
%ADD10C,0.0157*%
%ADD11C,0.0079*%
%ADD12C,0.0080*%
%ADD13C,0.0000*%
%ADD14C,0.0907*%
%ADD15C,0.0750*%
%ADD16C,0.2285*%
%ADD17C,0.0829*%
D10*
X013707Y010007D02*
X013550Y010168D01*
X013410Y010344D01*
X013289Y010533D01*
X014588Y012698D01*
X015376Y013407D01*
X016006Y013407D01*
X016084Y012541D01*
X017108Y012541D01*
X017108Y011832D01*
X016754Y011439D01*
X016671Y011353D01*
X016577Y011281D01*
X016472Y011225D01*
X016359Y011186D01*
X016242Y011165D01*
X016124Y011163D01*
X014785Y009509D01*
X014628Y009509D01*
X014426Y009563D01*
X014232Y009641D01*
X014049Y009741D01*
X013880Y009864D01*
X013707Y010007D01*
X013691Y010024D02*
X015201Y010024D01*
X015327Y010179D02*
X013541Y010179D01*
X013417Y010335D02*
X015454Y010335D01*
X015580Y010491D02*
X013316Y010491D01*
X013358Y010647D02*
X015706Y010647D01*
X015833Y010803D02*
X013451Y010803D01*
X013545Y010959D02*
X015959Y010959D01*
X016085Y011115D02*
X013638Y011115D01*
X013732Y011271D02*
X016559Y011271D01*
X016743Y011427D02*
X013826Y011427D01*
X013919Y011583D02*
X016884Y011583D01*
X017024Y011739D02*
X014013Y011739D01*
X014106Y011895D02*
X017108Y011895D01*
X017108Y012051D02*
X014200Y012051D01*
X014293Y012207D02*
X017108Y012207D01*
X017108Y012363D02*
X014387Y012363D01*
X014481Y012519D02*
X017108Y012519D01*
X016072Y012675D02*
X014574Y012675D01*
X014736Y012831D02*
X016058Y012831D01*
X016044Y012987D02*
X014909Y012987D01*
X015082Y013143D02*
X016030Y013143D01*
X016015Y013299D02*
X015256Y013299D01*
X015075Y009868D02*
X013875Y009868D01*
X014103Y009712D02*
X014949Y009712D01*
X014822Y009556D02*
X014453Y009556D01*
X020927Y009628D02*
X020848Y010730D01*
X021006Y010809D01*
X021320Y010494D01*
X021950Y011045D01*
X022541Y010533D01*
X023171Y011084D01*
X023722Y010494D01*
X023171Y008328D01*
X023153Y008272D01*
X023126Y008219D01*
X023092Y008171D01*
X023027Y008095D01*
X022952Y008030D01*
X022868Y007976D01*
X022777Y007935D01*
X022462Y007856D01*
X022297Y007836D01*
X022131Y007839D01*
X021967Y007865D01*
X021808Y007914D01*
X021658Y007984D01*
X021518Y008074D01*
X021393Y008183D01*
X021283Y008307D01*
X021192Y008446D01*
X021121Y008597D01*
X021072Y008755D01*
X021045Y008919D01*
X020927Y009628D01*
X020939Y009556D02*
X023483Y009556D01*
X023523Y009712D02*
X020921Y009712D01*
X020910Y009868D02*
X023563Y009868D01*
X023602Y010024D02*
X020898Y010024D01*
X020887Y010179D02*
X023642Y010179D01*
X023682Y010335D02*
X020876Y010335D01*
X020865Y010491D02*
X023721Y010491D01*
X023579Y010647D02*
X022672Y010647D01*
X022850Y010803D02*
X023433Y010803D01*
X023287Y010959D02*
X023028Y010959D01*
X022409Y010647D02*
X021496Y010647D01*
X021674Y010803D02*
X022229Y010803D01*
X022049Y010959D02*
X021853Y010959D01*
X021167Y010647D02*
X020854Y010647D01*
X020995Y010803D02*
X021011Y010803D01*
X020965Y009400D02*
X023444Y009400D01*
X023404Y009244D02*
X020991Y009244D01*
X021017Y009088D02*
X023364Y009088D01*
X023324Y008932D02*
X021043Y008932D01*
X021069Y008776D02*
X023285Y008776D01*
X023245Y008620D02*
X021114Y008620D01*
X021184Y008464D02*
X023205Y008464D01*
X023164Y008308D02*
X021283Y008308D01*
X021428Y008152D02*
X023076Y008152D01*
X022899Y007996D02*
X021639Y007996D01*
X022127Y007840D02*
X022329Y007840D01*
X031684Y014031D02*
X031635Y014116D01*
X031360Y014667D01*
X031714Y015257D01*
X032147Y015691D01*
X032502Y015887D01*
X034903Y015415D01*
X034943Y015336D01*
X034785Y015061D01*
X033998Y015061D01*
X034352Y014824D01*
X034392Y014807D01*
X034427Y014780D01*
X034455Y014747D01*
X034475Y014708D01*
X034486Y014666D01*
X034487Y014623D01*
X034479Y014580D01*
X034461Y014540D01*
X034435Y014505D01*
X034402Y014477D01*
X034363Y014456D01*
X034321Y014445D01*
X034277Y014444D01*
X034234Y014452D01*
X034194Y014470D01*
X033013Y015021D01*
X032423Y014943D01*
X032348Y014921D01*
X032278Y014887D01*
X032215Y014841D01*
X032162Y014784D01*
X032120Y014718D01*
X032090Y014646D01*
X032074Y014570D01*
X032072Y014492D01*
X032083Y014415D01*
X032109Y014341D01*
X032147Y014273D01*
X032182Y014217D01*
X032208Y014155D01*
X032224Y014091D01*
X032230Y014025D01*
X032226Y013958D01*
X032217Y013919D01*
X032200Y013883D01*
X032175Y013851D01*
X032144Y013825D01*
X032108Y013807D01*
X032070Y013796D01*
X032029Y013794D01*
X031990Y013801D01*
X031900Y013839D01*
X031818Y013891D01*
X031745Y013956D01*
X031684Y014031D01*
X031657Y014079D02*
X032225Y014079D01*
X032218Y013923D02*
X031782Y013923D01*
X031576Y014235D02*
X032171Y014235D01*
X032092Y014391D02*
X031498Y014391D01*
X031420Y014547D02*
X032073Y014547D01*
X032114Y014703D02*
X031381Y014703D01*
X031475Y014859D02*
X032240Y014859D01*
X031784Y015327D02*
X034937Y015327D01*
X034848Y015171D02*
X031662Y015171D01*
X031569Y015015D02*
X032966Y015015D01*
X033027Y015015D02*
X034066Y015015D01*
X034300Y014859D02*
X033361Y014859D01*
X033696Y014703D02*
X034476Y014703D01*
X034464Y014547D02*
X034030Y014547D01*
X034558Y015483D02*
X031940Y015483D01*
X032096Y015639D02*
X033765Y015639D01*
X032972Y015795D02*
X032335Y015795D01*
X032008Y023585D02*
X032103Y023603D01*
X032193Y023638D01*
X032275Y023689D01*
X032347Y023754D01*
X032405Y023831D01*
X032449Y023918D01*
X032476Y024011D01*
X032486Y024107D01*
X032479Y024203D01*
X032454Y024297D01*
X032412Y024384D01*
X032355Y024462D01*
X032285Y024529D01*
X032088Y024194D01*
X031734Y023840D01*
X031281Y023584D01*
X031911Y023584D01*
X032008Y023585D01*
X032054Y023594D02*
X031298Y023594D01*
X031574Y023750D02*
X032342Y023750D01*
X032443Y023906D02*
X031799Y023906D01*
X031955Y024062D02*
X032482Y024062D01*
X032475Y024218D02*
X032102Y024218D01*
X032194Y024374D02*
X032417Y024374D01*
X033612Y028069D02*
X033614Y028108D01*
X033620Y028147D01*
X033630Y028185D01*
X033643Y028222D01*
X033660Y028257D01*
X033680Y028291D01*
X033704Y028322D01*
X033731Y028351D01*
X033760Y028377D01*
X033792Y028400D01*
X033826Y028420D01*
X033862Y028436D01*
X033899Y028448D01*
X033938Y028457D01*
X033977Y028462D01*
X034016Y028463D01*
X034055Y028460D01*
X034094Y028453D01*
X034131Y028442D01*
X034168Y028428D01*
X034203Y028410D01*
X034236Y028389D01*
X034267Y028364D01*
X034295Y028337D01*
X034320Y028307D01*
X034342Y028274D01*
X034361Y028240D01*
X034376Y028204D01*
X034388Y028166D01*
X034396Y028128D01*
X034400Y028089D01*
X034400Y028049D01*
X034396Y028010D01*
X034388Y027972D01*
X034376Y027934D01*
X034361Y027898D01*
X034342Y027864D01*
X034320Y027831D01*
X034295Y027801D01*
X034267Y027774D01*
X034236Y027749D01*
X034203Y027728D01*
X034168Y027710D01*
X034131Y027696D01*
X034094Y027685D01*
X034055Y027678D01*
X034016Y027675D01*
X033977Y027676D01*
X033938Y027681D01*
X033899Y027690D01*
X033862Y027702D01*
X033826Y027718D01*
X033792Y027738D01*
X033760Y027761D01*
X033731Y027787D01*
X033704Y027816D01*
X033680Y027847D01*
X033660Y027881D01*
X033643Y027916D01*
X033630Y027953D01*
X033620Y027991D01*
X033614Y028030D01*
X033612Y028069D01*
X023756Y028117D02*
X016256Y028117D01*
X016256Y027961D02*
X023756Y027961D01*
X023756Y027805D02*
X016256Y027805D01*
X016256Y027649D02*
X023756Y027649D01*
X023756Y027493D02*
X016256Y027493D01*
X016256Y027337D02*
X023756Y027337D01*
X023756Y027181D02*
X016256Y027181D01*
X016256Y027025D02*
X023756Y027025D01*
X023756Y026869D02*
X016256Y026869D01*
X016256Y026713D02*
X023756Y026713D01*
X023756Y026569D02*
X023756Y028569D01*
X023506Y028819D01*
X016506Y028819D01*
X016256Y028569D01*
X016256Y026569D01*
X016506Y026319D01*
X023506Y026319D01*
X023756Y026569D01*
X023744Y026557D02*
X016267Y026557D01*
X016423Y026401D02*
X023588Y026401D01*
X023756Y028273D02*
X016256Y028273D01*
X016256Y028429D02*
X023756Y028429D01*
X023739Y028585D02*
X016272Y028585D01*
X016428Y028741D02*
X023583Y028741D01*
X019470Y023171D02*
X016990Y023683D01*
X016905Y023716D01*
X016816Y023734D01*
X016725Y023736D01*
X016635Y023722D01*
X016596Y023707D01*
X016561Y023684D01*
X016532Y023654D01*
X016510Y023619D01*
X016496Y023579D01*
X016492Y023538D01*
X016496Y023496D01*
X016510Y023456D01*
X016532Y023421D01*
X016561Y023391D01*
X016596Y023368D01*
X017226Y023171D01*
X017738Y023053D01*
X018525Y022856D01*
X018572Y022842D01*
X018614Y022818D01*
X018650Y022786D01*
X018679Y022746D01*
X018698Y022702D01*
X018708Y022654D01*
X018707Y022606D01*
X018696Y022558D01*
X018675Y022515D01*
X018645Y022476D01*
X018608Y022445D01*
X018565Y022423D01*
X017935Y022147D01*
X017906Y022112D01*
X017886Y022071D01*
X017875Y022027D01*
X017874Y021982D01*
X017882Y021938D01*
X017900Y021896D01*
X017926Y021859D01*
X017959Y021828D01*
X017998Y021806D01*
X018041Y021792D01*
X018087Y021788D01*
X018131Y021793D01*
X018643Y021911D01*
X018919Y022187D01*
X019273Y022069D01*
X019549Y022895D01*
X019470Y023171D01*
X019483Y023126D02*
X017421Y023126D01*
X017420Y023594D02*
X016501Y023594D01*
X016521Y023438D02*
X018176Y023438D01*
X018069Y022970D02*
X019527Y022970D01*
X019522Y022814D02*
X018618Y022814D01*
X018707Y022658D02*
X019470Y022658D01*
X019418Y022502D02*
X018665Y022502D01*
X018389Y022346D02*
X019366Y022346D01*
X019314Y022190D02*
X018032Y022190D01*
X017877Y022034D02*
X018766Y022034D01*
X018500Y021878D02*
X017912Y021878D01*
X018932Y023282D02*
X016871Y023282D01*
D11*
X019470Y023210D02*
X019549Y022895D01*
X019746Y022935D01*
X019706Y023210D01*
X019470Y023210D01*
X019484Y023155D02*
X019714Y023155D01*
X019725Y023078D02*
X019503Y023078D01*
X019522Y023001D02*
X019736Y023001D01*
X019690Y022923D02*
X019542Y022923D01*
X026242Y026635D02*
X026084Y027147D01*
X026070Y027206D01*
X026065Y027265D01*
X026070Y027325D01*
X026084Y027383D01*
X026163Y027620D01*
X026196Y027694D01*
X026241Y027762D01*
X026297Y027821D01*
X026363Y027869D01*
X026437Y027904D01*
X026515Y027927D01*
X026596Y027935D01*
X026693Y027943D01*
X026788Y027967D01*
X026878Y028005D01*
X026961Y028056D01*
X027035Y028120D01*
X027098Y028194D01*
X027149Y028278D01*
X027187Y028368D01*
X027241Y028499D01*
X027314Y028620D01*
X027404Y028730D01*
X027510Y028824D01*
X027629Y028901D01*
X027759Y028959D01*
X027895Y028998D01*
X028092Y029037D01*
X028131Y028013D01*
X028446Y028328D01*
X028554Y028505D01*
X028686Y028665D01*
X028838Y028804D01*
X029009Y028921D01*
X029195Y029012D01*
X029391Y029076D01*
X029549Y029116D01*
X030021Y029076D01*
X030029Y029075D01*
X030037Y029071D01*
X030041Y029065D01*
X030043Y029057D01*
X030041Y029049D01*
X030037Y029042D01*
X030029Y029038D01*
X030021Y029037D01*
X029826Y028846D01*
X029657Y028632D01*
X029516Y028398D01*
X029405Y028148D01*
X029327Y027886D01*
X029283Y027617D01*
X029273Y027344D01*
X029175Y027265D01*
X029090Y027172D01*
X029020Y027067D01*
X028968Y026952D01*
X028935Y026830D01*
X028921Y026705D01*
X028928Y026579D01*
X028953Y026455D01*
X028998Y026337D01*
X029061Y026228D01*
X029140Y026129D01*
X029234Y026045D01*
X029212Y026140D01*
X029205Y026237D01*
X029213Y026334D01*
X029237Y026429D01*
X029275Y026519D01*
X029327Y026601D01*
X029391Y026675D01*
X029470Y026754D01*
X029746Y026163D01*
X029785Y026084D01*
X029805Y026025D01*
X029982Y026143D01*
X029982Y026242D01*
X030034Y026521D01*
X030118Y026792D01*
X030230Y027053D01*
X030371Y027299D01*
X030538Y027528D01*
X030730Y027738D01*
X030801Y027801D01*
X030880Y027854D01*
X030966Y027895D01*
X031183Y027994D01*
X031196Y027999D01*
X031210Y027999D01*
X031224Y027995D01*
X031235Y027987D01*
X031243Y027976D01*
X031247Y027962D01*
X031247Y027948D01*
X031242Y027935D01*
X031185Y027570D01*
X031172Y027200D01*
X031202Y026832D01*
X031242Y026557D01*
X031281Y026478D01*
X031380Y026242D01*
X031649Y026525D01*
X031938Y026788D01*
X032246Y027029D01*
X032383Y026104D01*
X031517Y024864D01*
X031153Y024495D01*
X030755Y024164D01*
X030325Y023874D01*
X029869Y023627D01*
X029391Y023427D01*
X028604Y023722D01*
X026931Y024667D01*
X026832Y024824D01*
X026705Y024986D01*
X026599Y025163D01*
X026516Y025351D01*
X026458Y025549D01*
X026425Y025752D01*
X026419Y025958D01*
X026439Y026163D01*
X026441Y026205D01*
X026435Y026246D01*
X026421Y026285D01*
X026399Y026320D01*
X026334Y026419D01*
X026281Y026524D01*
X026242Y026635D01*
X026243Y026631D02*
X028925Y026631D01*
X028922Y026708D02*
X026219Y026708D01*
X026196Y026785D02*
X028930Y026785D01*
X028944Y026863D02*
X026172Y026863D01*
X026148Y026940D02*
X028965Y026940D01*
X028998Y027017D02*
X026124Y027017D01*
X026101Y027094D02*
X029039Y027094D01*
X029089Y027172D02*
X026078Y027172D01*
X026067Y027249D02*
X029160Y027249D01*
X029251Y027326D02*
X026070Y027326D01*
X026091Y027403D02*
X029275Y027403D01*
X029278Y027481D02*
X026117Y027481D01*
X026142Y027558D02*
X029281Y027558D01*
X029286Y027635D02*
X026170Y027635D01*
X026208Y027712D02*
X029299Y027712D01*
X029311Y027790D02*
X026267Y027790D01*
X026361Y027867D02*
X029324Y027867D01*
X029344Y027944D02*
X026697Y027944D01*
X026905Y028021D02*
X028131Y028021D01*
X028139Y028021D02*
X029367Y028021D01*
X029390Y028099D02*
X028217Y028099D01*
X028128Y028099D02*
X027010Y028099D01*
X027083Y028176D02*
X028125Y028176D01*
X028122Y028253D02*
X027134Y028253D01*
X027171Y028330D02*
X028119Y028330D01*
X028116Y028407D02*
X027203Y028407D01*
X027235Y028485D02*
X028113Y028485D01*
X028110Y028562D02*
X027279Y028562D01*
X027329Y028639D02*
X028107Y028639D01*
X028104Y028716D02*
X027393Y028716D01*
X027476Y028794D02*
X028101Y028794D01*
X028099Y028871D02*
X027583Y028871D01*
X027734Y028948D02*
X028096Y028948D01*
X028093Y029025D02*
X028034Y029025D01*
X028665Y028639D02*
X029662Y028639D01*
X029614Y028562D02*
X028601Y028562D01*
X028542Y028485D02*
X029568Y028485D01*
X029521Y028407D02*
X028495Y028407D01*
X028448Y028330D02*
X029486Y028330D01*
X029451Y028253D02*
X028371Y028253D01*
X028294Y028176D02*
X029417Y028176D01*
X029724Y028716D02*
X028742Y028716D01*
X028827Y028794D02*
X029785Y028794D01*
X029852Y028871D02*
X028936Y028871D01*
X029065Y028948D02*
X029930Y028948D01*
X030009Y029025D02*
X029235Y029025D01*
X029496Y029103D02*
X029706Y029103D01*
X030907Y027867D02*
X031231Y027867D01*
X031219Y027790D02*
X030788Y027790D01*
X030707Y027712D02*
X031207Y027712D01*
X031195Y027635D02*
X030636Y027635D01*
X030565Y027558D02*
X031185Y027558D01*
X031182Y027481D02*
X030503Y027481D01*
X030447Y027403D02*
X031179Y027403D01*
X031176Y027326D02*
X030391Y027326D01*
X030342Y027249D02*
X031174Y027249D01*
X031174Y027172D02*
X030298Y027172D01*
X030254Y027094D02*
X031181Y027094D01*
X031187Y027017D02*
X030215Y027017D01*
X030181Y026940D02*
X031193Y026940D01*
X031200Y026863D02*
X030148Y026863D01*
X030116Y026785D02*
X031209Y026785D01*
X031220Y026708D02*
X030092Y026708D01*
X030068Y026631D02*
X031231Y026631D01*
X031243Y026554D02*
X030045Y026554D01*
X030026Y026476D02*
X031282Y026476D01*
X031314Y026399D02*
X030012Y026399D01*
X029997Y026322D02*
X031346Y026322D01*
X031378Y026245D02*
X029982Y026245D01*
X029982Y026168D02*
X032374Y026168D01*
X032362Y026245D02*
X031382Y026245D01*
X031456Y026322D02*
X032351Y026322D01*
X032339Y026399D02*
X031529Y026399D01*
X031603Y026476D02*
X032328Y026476D01*
X032316Y026554D02*
X031681Y026554D01*
X031766Y026631D02*
X032305Y026631D01*
X032293Y026708D02*
X031851Y026708D01*
X031936Y026785D02*
X032282Y026785D01*
X032270Y026863D02*
X032034Y026863D01*
X032132Y026940D02*
X032259Y026940D01*
X032247Y027017D02*
X032230Y027017D01*
X032374Y026090D02*
X029902Y026090D01*
X029782Y026090D02*
X029223Y026090D01*
X029184Y026090D02*
X026432Y026090D01*
X026424Y026013D02*
X032320Y026013D01*
X032266Y025936D02*
X026420Y025936D01*
X026422Y025859D02*
X032212Y025859D01*
X032158Y025781D02*
X026424Y025781D01*
X026433Y025704D02*
X032104Y025704D01*
X032050Y025627D02*
X026445Y025627D01*
X026458Y025550D02*
X031996Y025550D01*
X031942Y025472D02*
X026480Y025472D01*
X026503Y025395D02*
X031888Y025395D01*
X031834Y025318D02*
X026531Y025318D01*
X026565Y025241D02*
X031781Y025241D01*
X031727Y025163D02*
X026598Y025163D01*
X026645Y025086D02*
X031673Y025086D01*
X031619Y025009D02*
X026691Y025009D01*
X026748Y024932D02*
X031565Y024932D01*
X031508Y024854D02*
X026809Y024854D01*
X026862Y024777D02*
X031432Y024777D01*
X031356Y024700D02*
X026910Y024700D01*
X027009Y024623D02*
X031279Y024623D01*
X031203Y024545D02*
X027146Y024545D01*
X027283Y024468D02*
X031121Y024468D01*
X031028Y024391D02*
X027419Y024391D01*
X027556Y024314D02*
X030935Y024314D01*
X030842Y024236D02*
X027693Y024236D01*
X027830Y024159D02*
X030748Y024159D01*
X030633Y024082D02*
X027966Y024082D01*
X028103Y024005D02*
X030519Y024005D01*
X030405Y023928D02*
X028240Y023928D01*
X028377Y023850D02*
X030282Y023850D01*
X030139Y023773D02*
X028514Y023773D01*
X028674Y023696D02*
X029996Y023696D01*
X029849Y023619D02*
X028880Y023619D01*
X029086Y023541D02*
X029665Y023541D01*
X029480Y023464D02*
X029292Y023464D01*
X029210Y026168D02*
X029744Y026168D01*
X029708Y026245D02*
X029205Y026245D01*
X029212Y026322D02*
X029671Y026322D01*
X029635Y026399D02*
X029229Y026399D01*
X029257Y026476D02*
X029599Y026476D01*
X029563Y026554D02*
X029297Y026554D01*
X029353Y026631D02*
X029527Y026631D01*
X029491Y026708D02*
X029425Y026708D01*
X028949Y026476D02*
X026305Y026476D01*
X026271Y026554D02*
X028933Y026554D01*
X028975Y026399D02*
X026347Y026399D01*
X026398Y026322D02*
X029007Y026322D01*
X029051Y026245D02*
X026435Y026245D01*
X026439Y026168D02*
X029110Y026168D01*
X031073Y027944D02*
X031245Y027944D01*
D12*
X033840Y015848D02*
X034116Y015809D01*
X034076Y015612D01*
X033801Y015651D01*
X033840Y015848D01*
X033832Y015806D02*
X034115Y015806D01*
X034100Y015728D02*
X033816Y015728D01*
X033816Y015649D02*
X034084Y015649D01*
D13*
X006006Y004037D02*
X006006Y029628D01*
X006005Y029628D02*
X006007Y029714D01*
X006012Y029800D01*
X006022Y029885D01*
X006035Y029970D01*
X006052Y030054D01*
X006072Y030138D01*
X006096Y030220D01*
X006124Y030301D01*
X006155Y030382D01*
X006189Y030460D01*
X006227Y030537D01*
X006269Y030613D01*
X006313Y030686D01*
X006361Y030757D01*
X006412Y030827D01*
X006466Y030894D01*
X006522Y030958D01*
X006582Y031020D01*
X006644Y031080D01*
X006708Y031136D01*
X006775Y031190D01*
X006845Y031241D01*
X006916Y031289D01*
X006990Y031333D01*
X007065Y031375D01*
X007142Y031413D01*
X007220Y031447D01*
X007301Y031478D01*
X007382Y031506D01*
X007464Y031530D01*
X007548Y031550D01*
X007632Y031567D01*
X007717Y031580D01*
X007802Y031590D01*
X007888Y031595D01*
X007974Y031597D01*
X007974Y031596D02*
X043407Y031596D01*
X043407Y031597D02*
X043493Y031595D01*
X043579Y031590D01*
X043664Y031580D01*
X043749Y031567D01*
X043833Y031550D01*
X043917Y031530D01*
X043999Y031506D01*
X044080Y031478D01*
X044161Y031447D01*
X044239Y031413D01*
X044316Y031375D01*
X044392Y031333D01*
X044465Y031289D01*
X044536Y031241D01*
X044606Y031190D01*
X044673Y031136D01*
X044737Y031080D01*
X044799Y031020D01*
X044859Y030958D01*
X044915Y030894D01*
X044969Y030827D01*
X045020Y030757D01*
X045068Y030686D01*
X045112Y030613D01*
X045154Y030537D01*
X045192Y030460D01*
X045226Y030382D01*
X045257Y030301D01*
X045285Y030220D01*
X045309Y030138D01*
X045329Y030054D01*
X045346Y029970D01*
X045359Y029885D01*
X045369Y029800D01*
X045374Y029714D01*
X045376Y029628D01*
X045376Y004037D01*
X045374Y003951D01*
X045369Y003865D01*
X045359Y003780D01*
X045346Y003695D01*
X045329Y003611D01*
X045309Y003527D01*
X045285Y003445D01*
X045257Y003364D01*
X045226Y003283D01*
X045192Y003205D01*
X045154Y003128D01*
X045112Y003052D01*
X045068Y002979D01*
X045020Y002908D01*
X044969Y002838D01*
X044915Y002771D01*
X044859Y002707D01*
X044799Y002645D01*
X044737Y002585D01*
X044673Y002529D01*
X044606Y002475D01*
X044536Y002424D01*
X044465Y002376D01*
X044392Y002332D01*
X044316Y002290D01*
X044239Y002252D01*
X044161Y002218D01*
X044080Y002187D01*
X043999Y002159D01*
X043917Y002135D01*
X043833Y002115D01*
X043749Y002098D01*
X043664Y002085D01*
X043579Y002075D01*
X043493Y002070D01*
X043407Y002068D01*
X043407Y002069D02*
X007974Y002069D01*
X007974Y002068D02*
X007888Y002070D01*
X007802Y002075D01*
X007717Y002085D01*
X007632Y002098D01*
X007548Y002115D01*
X007464Y002135D01*
X007382Y002159D01*
X007301Y002187D01*
X007220Y002218D01*
X007142Y002252D01*
X007065Y002290D01*
X006989Y002332D01*
X006916Y002376D01*
X006845Y002424D01*
X006775Y002475D01*
X006708Y002529D01*
X006644Y002585D01*
X006582Y002645D01*
X006522Y002707D01*
X006466Y002771D01*
X006412Y002838D01*
X006361Y002908D01*
X006313Y002979D01*
X006269Y003053D01*
X006227Y003128D01*
X006189Y003205D01*
X006155Y003283D01*
X006124Y003364D01*
X006096Y003445D01*
X006072Y003527D01*
X006052Y003611D01*
X006035Y003695D01*
X006022Y003780D01*
X006012Y003865D01*
X006007Y003951D01*
X006005Y004037D01*
D14*
X007474Y014832D03*
X008474Y014832D03*
X008474Y015832D03*
X007474Y015832D03*
X007474Y016832D03*
X008474Y016832D03*
X008474Y017832D03*
X007474Y017832D03*
X007474Y018832D03*
X008474Y018832D03*
D15*
X009474Y018832D03*
X009474Y017832D03*
X009474Y016832D03*
X009474Y015832D03*
X009474Y014832D03*
X014006Y018069D03*
X014006Y019069D03*
X013006Y019069D03*
X012006Y020069D03*
X010006Y020069D03*
X008006Y021069D03*
X008006Y026069D03*
X009006Y026069D03*
X011006Y027069D03*
X013006Y027069D03*
X014006Y025069D03*
X015006Y024069D03*
X017006Y022069D03*
X017006Y020069D03*
X018006Y020069D03*
X018006Y018069D03*
X017006Y018069D03*
X016006Y018069D03*
X015006Y018069D03*
X016006Y016069D03*
X019006Y017069D03*
X020006Y018069D03*
X020006Y019069D03*
X022006Y020069D03*
X022006Y021069D03*
X023006Y022069D03*
X024006Y023069D03*
X024006Y025069D03*
X023006Y025069D03*
X022006Y025069D03*
X021006Y025069D03*
X020006Y025069D03*
X020006Y023069D03*
X021006Y023069D03*
X018006Y024069D03*
X019006Y029069D03*
X020006Y030069D03*
X021006Y030069D03*
X022006Y029069D03*
X023006Y029069D03*
X024006Y027069D03*
X027006Y030069D03*
X034006Y028069D03*
X039006Y029069D03*
X041006Y029069D03*
X043006Y027069D03*
X044006Y026069D03*
X041006Y023069D03*
X041006Y022069D03*
X041006Y021069D03*
X041006Y020069D03*
X039006Y020069D03*
X039006Y021069D03*
X039006Y022069D03*
X039006Y023069D03*
X036006Y022069D03*
X036006Y021069D03*
X036006Y020069D03*
X036006Y019069D03*
X034006Y019069D03*
X033006Y020069D03*
X032006Y021069D03*
X034006Y022069D03*
X030006Y020069D03*
X029006Y020069D03*
X031006Y018069D03*
X034006Y016069D03*
X036006Y016069D03*
X036006Y015069D03*
X036006Y014069D03*
X034006Y013069D03*
X032006Y015069D03*
X029006Y012069D03*
X028006Y010069D03*
X029006Y009069D03*
X031006Y010069D03*
X034006Y009069D03*
X036006Y009069D03*
X038006Y009069D03*
X038006Y014069D03*
X038006Y015069D03*
X038006Y016069D03*
X038006Y017069D03*
X040006Y017069D03*
X040006Y016069D03*
X040006Y015069D03*
X040006Y014069D03*
X043006Y017069D03*
X044006Y016069D03*
X028006Y023069D03*
X022006Y013069D03*
X021006Y013069D03*
X024006Y011069D03*
X022006Y010069D03*
X021006Y009069D03*
X020006Y010069D03*
X020006Y007069D03*
X021006Y007069D03*
X024006Y007069D03*
X025006Y007069D03*
X027006Y007069D03*
X028006Y007069D03*
X027006Y009069D03*
X025006Y009069D03*
X012006Y009069D03*
X011006Y007069D03*
D16*
X007974Y004037D03*
X007974Y029628D03*
X043407Y029628D03*
X043407Y004037D03*
D17*
X043710Y009911D03*
X042710Y009911D03*
X042710Y010911D03*
X042710Y011911D03*
X043710Y011911D03*
X043710Y010911D03*
X043710Y012911D03*
X042710Y012911D03*
X042710Y013911D03*
X043710Y013911D03*
X043710Y019360D03*
X042710Y019360D03*
X042710Y020360D03*
X042710Y021360D03*
X043710Y021360D03*
X043710Y020360D03*
X043710Y022360D03*
X042710Y022360D03*
X042710Y023360D03*
X043710Y023360D03*
X012006Y021069D03*
X011006Y021069D03*
M02*
