G75*
%MOIN*%
%OFA0B0*%
%FSLAX24Y24*%
%IPPOS*%
%LPD*%
%AMOC8*
5,1,8,0,0,1.08239X$1,22.5*
%
%ADD10C,0.0000*%
%ADD11R,0.0098X0.0787*%
%ADD12R,0.0787X0.0098*%
%ADD13C,0.0787*%
%ADD14C,0.0080*%
%ADD15C,0.0630*%
%ADD16R,0.0394X0.0394*%
%ADD17R,0.0591X0.0098*%
%ADD18R,0.0098X0.0591*%
%ADD19R,0.0197X0.0787*%
%ADD20R,0.0984X0.0866*%
%ADD21R,0.0138X0.0591*%
%ADD22C,0.2165*%
%ADD23R,0.0276X0.0591*%
%ADD24R,0.0719X0.0846*%
%ADD25C,0.0709*%
%ADD26R,0.0591X0.0299*%
%ADD27R,0.0709X0.0236*%
%ADD28R,0.2165X0.0787*%
%ADD29R,0.0709X0.0787*%
%ADD30R,0.0299X0.0591*%
%ADD31C,0.0157*%
%ADD32C,0.0160*%
%ADD33C,0.0236*%
D10*
X006006Y004037D02*
X006006Y029628D01*
X006005Y029628D02*
X006007Y029714D01*
X006012Y029800D01*
X006022Y029885D01*
X006035Y029970D01*
X006052Y030054D01*
X006072Y030138D01*
X006096Y030220D01*
X006124Y030301D01*
X006155Y030382D01*
X006189Y030460D01*
X006227Y030537D01*
X006269Y030613D01*
X006313Y030686D01*
X006361Y030757D01*
X006412Y030827D01*
X006466Y030894D01*
X006522Y030958D01*
X006582Y031020D01*
X006644Y031080D01*
X006708Y031136D01*
X006775Y031190D01*
X006845Y031241D01*
X006916Y031289D01*
X006990Y031333D01*
X007065Y031375D01*
X007142Y031413D01*
X007220Y031447D01*
X007301Y031478D01*
X007382Y031506D01*
X007464Y031530D01*
X007548Y031550D01*
X007632Y031567D01*
X007717Y031580D01*
X007802Y031590D01*
X007888Y031595D01*
X007974Y031597D01*
X007974Y031596D02*
X043407Y031596D01*
X043407Y031597D02*
X043493Y031595D01*
X043579Y031590D01*
X043664Y031580D01*
X043749Y031567D01*
X043833Y031550D01*
X043917Y031530D01*
X043999Y031506D01*
X044080Y031478D01*
X044161Y031447D01*
X044239Y031413D01*
X044316Y031375D01*
X044392Y031333D01*
X044465Y031289D01*
X044536Y031241D01*
X044606Y031190D01*
X044673Y031136D01*
X044737Y031080D01*
X044799Y031020D01*
X044859Y030958D01*
X044915Y030894D01*
X044969Y030827D01*
X045020Y030757D01*
X045068Y030686D01*
X045112Y030613D01*
X045154Y030537D01*
X045192Y030460D01*
X045226Y030382D01*
X045257Y030301D01*
X045285Y030220D01*
X045309Y030138D01*
X045329Y030054D01*
X045346Y029970D01*
X045359Y029885D01*
X045369Y029800D01*
X045374Y029714D01*
X045376Y029628D01*
X045376Y004037D01*
X045374Y003951D01*
X045369Y003865D01*
X045359Y003780D01*
X045346Y003695D01*
X045329Y003611D01*
X045309Y003527D01*
X045285Y003445D01*
X045257Y003364D01*
X045226Y003283D01*
X045192Y003205D01*
X045154Y003128D01*
X045112Y003052D01*
X045068Y002979D01*
X045020Y002908D01*
X044969Y002838D01*
X044915Y002771D01*
X044859Y002707D01*
X044799Y002645D01*
X044737Y002585D01*
X044673Y002529D01*
X044606Y002475D01*
X044536Y002424D01*
X044465Y002376D01*
X044392Y002332D01*
X044316Y002290D01*
X044239Y002252D01*
X044161Y002218D01*
X044080Y002187D01*
X043999Y002159D01*
X043917Y002135D01*
X043833Y002115D01*
X043749Y002098D01*
X043664Y002085D01*
X043579Y002075D01*
X043493Y002070D01*
X043407Y002068D01*
X043407Y002069D02*
X007974Y002069D01*
X007974Y002068D02*
X007888Y002070D01*
X007802Y002075D01*
X007717Y002085D01*
X007632Y002098D01*
X007548Y002115D01*
X007464Y002135D01*
X007382Y002159D01*
X007301Y002187D01*
X007220Y002218D01*
X007142Y002252D01*
X007065Y002290D01*
X006989Y002332D01*
X006916Y002376D01*
X006845Y002424D01*
X006775Y002475D01*
X006708Y002529D01*
X006644Y002585D01*
X006582Y002645D01*
X006522Y002707D01*
X006466Y002771D01*
X006412Y002838D01*
X006361Y002908D01*
X006313Y002979D01*
X006269Y003053D01*
X006227Y003128D01*
X006189Y003205D01*
X006155Y003283D01*
X006124Y003364D01*
X006096Y003445D01*
X006072Y003527D01*
X006052Y003611D01*
X006035Y003695D01*
X006022Y003780D01*
X006012Y003865D01*
X006007Y003951D01*
X006005Y004037D01*
D11*
X023328Y013565D03*
X023525Y013565D03*
X023722Y013565D03*
X023919Y013565D03*
X024116Y013565D03*
X024313Y013565D03*
X024509Y013565D03*
X024706Y013565D03*
X024903Y013565D03*
X025100Y013565D03*
X025297Y013565D03*
X025494Y013565D03*
X025691Y013565D03*
X025887Y013565D03*
X026084Y013565D03*
X026281Y013565D03*
X026478Y013565D03*
X026675Y013565D03*
X026872Y013565D03*
X027069Y013565D03*
X027265Y013565D03*
X027462Y013565D03*
X027659Y013565D03*
X027856Y013565D03*
X028053Y013565D03*
X028053Y020100D03*
X027856Y020100D03*
X027659Y020100D03*
X027462Y020100D03*
X027265Y020100D03*
X027069Y020100D03*
X026872Y020100D03*
X026675Y020100D03*
X026478Y020100D03*
X026281Y020100D03*
X026084Y020100D03*
X025887Y020100D03*
X025691Y020100D03*
X025494Y020100D03*
X025297Y020100D03*
X025100Y020100D03*
X024903Y020100D03*
X024706Y020100D03*
X024509Y020100D03*
X024313Y020100D03*
X024116Y020100D03*
X023919Y020100D03*
X023722Y020100D03*
X023525Y020100D03*
X023328Y020100D03*
D12*
X022423Y019194D03*
X022423Y018998D03*
X022423Y018801D03*
X022423Y018604D03*
X022423Y018407D03*
X022423Y018210D03*
X022423Y018013D03*
X022423Y017817D03*
X022423Y017620D03*
X022423Y017423D03*
X022423Y017226D03*
X022423Y017029D03*
X022423Y016832D03*
X022423Y016635D03*
X022423Y016439D03*
X022423Y016242D03*
X022423Y016045D03*
X022423Y015848D03*
X022423Y015651D03*
X022423Y015454D03*
X022423Y015257D03*
X022423Y015061D03*
X022423Y014864D03*
X022423Y014667D03*
X022423Y014470D03*
X028958Y014470D03*
X028958Y014667D03*
X028958Y014864D03*
X028958Y015061D03*
X028958Y015257D03*
X028958Y015454D03*
X028958Y015651D03*
X028958Y015848D03*
X028958Y016045D03*
X028958Y016242D03*
X028958Y016439D03*
X028958Y016635D03*
X028958Y016832D03*
X028958Y017029D03*
X028958Y017226D03*
X028958Y017423D03*
X028958Y017620D03*
X028958Y017817D03*
X028958Y018013D03*
X028958Y018210D03*
X028958Y018407D03*
X028958Y018604D03*
X028958Y018801D03*
X028958Y018998D03*
X028958Y019194D03*
D13*
X008474Y018832D03*
X007474Y018832D03*
X007474Y017832D03*
X008474Y017832D03*
X008474Y016832D03*
X008474Y015832D03*
X007474Y015832D03*
X007474Y016832D03*
X007474Y014832D03*
X008474Y014832D03*
D14*
X008474Y015832D02*
X009474Y015832D01*
X009474Y016832D02*
X007580Y016832D01*
X007187Y013683D02*
X011320Y013683D01*
X011320Y011911D01*
X011177Y011767D01*
X010474Y011767D01*
X010474Y011267D02*
X011911Y011267D01*
X011911Y012305D01*
X011911Y013092D02*
X011911Y013683D01*
X011911Y015191D01*
X011911Y015832D01*
X011911Y015191D02*
X013076Y015191D01*
X011911Y013683D02*
X011320Y013683D01*
X013092Y012305D02*
X012055Y011267D01*
X011911Y011267D01*
X012880Y011502D02*
X012880Y010435D01*
X013380Y010435D02*
X013380Y011214D01*
X014076Y011911D01*
X017423Y011911D01*
X017620Y012108D01*
X017620Y012502D01*
X017226Y012502D02*
X016832Y012108D01*
X013486Y012108D01*
X012880Y011502D01*
X013092Y012305D02*
X015848Y012305D01*
X016635Y013092D01*
X016635Y015651D01*
X017226Y016242D01*
X019391Y016242D01*
X019982Y016832D01*
X020769Y016832D01*
X021360Y017423D01*
X022423Y017423D01*
X022423Y017226D02*
X021557Y017226D01*
X020966Y016635D01*
X020179Y016635D01*
X019588Y016045D01*
X017817Y016045D01*
X017226Y015454D01*
X017226Y014667D01*
X018013Y014667D02*
X018013Y015257D01*
X018407Y015651D01*
X019982Y015651D01*
X020572Y016242D01*
X022423Y016242D01*
X022423Y016439D02*
X020376Y016439D01*
X019785Y015848D01*
X018013Y015848D01*
X017620Y015454D01*
X017620Y013289D01*
X018013Y013880D02*
X018013Y012108D01*
X017620Y011714D01*
X014864Y011714D01*
X014380Y011230D01*
X014380Y010435D01*
X014880Y010435D02*
X014880Y011139D01*
X015257Y011517D01*
X018013Y011517D01*
X018407Y011911D01*
X018407Y012502D01*
X018407Y013289D02*
X018407Y015257D01*
X018604Y015454D01*
X020179Y015454D01*
X020769Y016045D01*
X022423Y016045D01*
X022423Y015848D02*
X024706Y015848D01*
X025691Y016832D01*
X025887Y017029D01*
X026478Y017620D01*
X028958Y017620D01*
X028958Y017817D02*
X026675Y017817D01*
X026478Y017620D01*
X026478Y020100D01*
X026675Y020100D02*
X026675Y023328D01*
X027265Y023919D01*
X032777Y023919D01*
X033761Y022935D01*
X036320Y022935D01*
X036714Y022541D01*
X036714Y019785D01*
X037305Y019194D01*
X039273Y019194D01*
X040006Y018462D01*
X040006Y017069D01*
X041112Y017069D01*
X041635Y016545D01*
X041635Y013289D01*
X042013Y012911D01*
X042710Y012911D01*
X043210Y012411D02*
X041726Y012411D01*
X041439Y012698D01*
X041439Y016045D01*
X040915Y016569D01*
X039506Y016569D01*
X039006Y017069D01*
X038919Y017069D01*
X039667Y017817D01*
X039667Y018407D01*
X039076Y018998D01*
X037108Y018998D01*
X036517Y019588D01*
X036517Y022344D01*
X036124Y022738D01*
X033565Y022738D01*
X032580Y023722D01*
X027462Y023722D01*
X026872Y023131D01*
X026872Y020100D01*
X027069Y020100D02*
X027069Y022935D01*
X027659Y023525D01*
X032383Y023525D01*
X033171Y022738D01*
X033171Y021754D01*
X032777Y021360D01*
X032297Y021360D01*
X032006Y021069D01*
X034612Y021069D01*
X035399Y021069D02*
X036006Y021069D01*
X036006Y020069D01*
X036006Y019069D01*
X035399Y019069D01*
X034612Y019069D02*
X034006Y019069D01*
X031076Y019069D01*
X030218Y018210D01*
X028958Y018210D01*
X028958Y018013D02*
X030950Y018013D01*
X031006Y018069D01*
X031596Y017817D02*
X036911Y017817D01*
X037486Y017242D01*
X037486Y016651D01*
X037569Y016569D01*
X039006Y016569D01*
X039506Y016069D01*
X040006Y016069D01*
X040612Y016069D01*
X041242Y015439D01*
X041242Y012305D01*
X041635Y011911D01*
X042710Y011911D01*
X043210Y011411D02*
X041545Y011411D01*
X041045Y011911D01*
X041045Y015135D01*
X040612Y015569D01*
X039506Y015569D01*
X039006Y016069D01*
X038006Y016069D01*
X037478Y016069D01*
X037289Y016257D01*
X037289Y017045D01*
X036714Y017620D01*
X031793Y017620D01*
X031399Y017226D01*
X028958Y017226D01*
X028958Y017423D02*
X031202Y017423D01*
X031596Y017817D01*
X031990Y017423D02*
X036517Y017423D01*
X037092Y016848D01*
X037092Y016072D01*
X037596Y015569D01*
X039006Y015569D01*
X039506Y015069D01*
X040612Y015069D01*
X040848Y014832D01*
X040848Y011517D01*
X041454Y010911D01*
X042710Y010911D01*
X043210Y011411D02*
X043710Y011911D01*
X043210Y012411D02*
X043710Y012911D01*
X043710Y010911D02*
X043210Y010411D01*
X041167Y010411D01*
X040651Y010927D01*
X040651Y014226D01*
X040309Y014569D01*
X039506Y014569D01*
X039006Y015069D01*
X038006Y015069D01*
X037490Y015069D01*
X036895Y015663D01*
X036895Y016679D01*
X036348Y017226D01*
X032187Y017226D01*
X031202Y016242D01*
X028958Y016242D01*
X028958Y016439D02*
X031006Y016439D01*
X031990Y017423D01*
X032383Y017029D02*
X036242Y017029D01*
X036698Y016572D01*
X036698Y015470D01*
X037600Y014569D01*
X039006Y014569D01*
X039506Y014069D01*
X040006Y014069D01*
X040454Y013620D01*
X040454Y010533D01*
X041076Y009911D01*
X042710Y009911D01*
X043210Y009411D02*
X040986Y009411D01*
X040257Y010139D01*
X040257Y012817D01*
X039006Y014069D01*
X038006Y014069D01*
X037714Y014069D01*
X036517Y015265D01*
X036517Y016439D01*
X036124Y016832D01*
X032580Y016832D01*
X031596Y015848D01*
X028958Y015848D01*
X028958Y016045D02*
X031399Y016045D01*
X032383Y017029D01*
X032210Y016069D02*
X031596Y015454D01*
X028958Y015454D01*
X028958Y015061D02*
X027462Y015061D01*
X026872Y015651D01*
X025887Y016635D01*
X025691Y016832D01*
X025494Y017029D01*
X025494Y020100D01*
X025691Y020100D02*
X025691Y021360D01*
X025887Y021557D01*
X025887Y024116D01*
X026478Y024706D01*
X033565Y024706D01*
X034549Y023722D01*
X037108Y023722D01*
X037502Y023328D01*
X037502Y021950D01*
X037915Y021569D01*
X040006Y021569D01*
X040506Y021069D01*
X041506Y021069D01*
X042214Y020360D01*
X042710Y020360D01*
X042214Y020860D02*
X043210Y020860D01*
X043710Y021360D01*
X043210Y021860D02*
X042214Y021860D01*
X041506Y022569D01*
X040506Y022569D01*
X040006Y023069D01*
X038943Y023069D01*
X037698Y024313D01*
X035139Y024313D01*
X034155Y025297D01*
X025887Y025297D01*
X025297Y024706D01*
X025297Y022147D01*
X024903Y021754D01*
X024903Y020100D01*
X024706Y020100D02*
X024706Y021950D01*
X025100Y022344D01*
X025100Y024903D01*
X025691Y025494D01*
X034352Y025494D01*
X035336Y024509D01*
X039565Y024509D01*
X041006Y023069D01*
X041502Y023069D01*
X042210Y022360D01*
X042710Y022360D01*
X043210Y021860D02*
X043710Y022360D01*
X042710Y021360D02*
X042214Y021360D01*
X041506Y022069D01*
X040506Y022069D01*
X040006Y022569D01*
X038261Y022569D01*
X037895Y022935D01*
X037895Y023722D01*
X037502Y024116D01*
X034943Y024116D01*
X033958Y025100D01*
X026084Y025100D01*
X025494Y024509D01*
X025494Y021950D01*
X025100Y021557D01*
X025100Y020100D01*
X025297Y020100D02*
X025297Y021360D01*
X025691Y021754D01*
X025691Y024313D01*
X026281Y024903D01*
X033761Y024903D01*
X034746Y023919D01*
X037305Y023919D01*
X037698Y023525D01*
X037698Y022344D01*
X037974Y022069D01*
X040006Y022069D01*
X040506Y021569D01*
X041506Y021569D01*
X042214Y020860D01*
X041506Y020569D02*
X040506Y020569D01*
X040006Y021069D01*
X037399Y021069D01*
X037305Y021163D01*
X037305Y023131D01*
X036911Y023525D01*
X034352Y023525D01*
X033368Y024509D01*
X026675Y024509D01*
X026084Y023919D01*
X026084Y021360D01*
X025887Y021163D01*
X025887Y020100D01*
X026084Y020100D02*
X026084Y020966D01*
X026281Y021163D01*
X026281Y023722D01*
X026872Y024313D01*
X033171Y024313D01*
X034155Y023328D01*
X036714Y023328D01*
X037108Y022935D01*
X037108Y020769D01*
X037309Y020569D01*
X040006Y020569D01*
X040506Y020069D01*
X041506Y020069D01*
X042214Y019360D01*
X042710Y019360D01*
X042214Y019860D02*
X043210Y019860D01*
X043710Y020360D01*
X043710Y019360D02*
X043210Y018860D01*
X042214Y018860D01*
X041506Y019569D01*
X040506Y019569D01*
X040006Y020069D01*
X037415Y020069D01*
X036911Y020572D01*
X036911Y022738D01*
X036517Y023131D01*
X033958Y023131D01*
X032974Y024116D01*
X027069Y024116D01*
X026478Y023525D01*
X026478Y020966D01*
X026281Y020769D01*
X026281Y020100D01*
X027265Y020100D02*
X027265Y022328D01*
X028006Y023069D01*
X028265Y023328D01*
X030218Y023328D01*
X030612Y022935D01*
X031202Y022935D01*
X030612Y022541D02*
X030612Y021950D01*
X030415Y021754D01*
X029037Y021754D01*
X029824Y021360D02*
X027856Y021360D01*
X027659Y021163D01*
X027659Y020100D01*
X027462Y020100D02*
X027462Y021360D01*
X027856Y021754D01*
X028250Y021754D01*
X028250Y020966D02*
X028840Y020966D01*
X029006Y020801D01*
X029006Y020069D01*
X028958Y019194D02*
X029628Y019194D01*
X030006Y019572D01*
X030006Y020069D01*
X030612Y021360D02*
X031399Y021360D01*
X031793Y021754D01*
X032580Y021754D01*
X032777Y021950D01*
X032777Y022738D01*
X032580Y022935D01*
X031990Y022935D01*
X030612Y022541D02*
X030218Y022935D01*
X029628Y022935D01*
X028840Y022935D02*
X028139Y022935D01*
X028006Y023069D01*
X028250Y020966D02*
X028053Y020769D01*
X028053Y020100D01*
X027856Y020100D02*
X027856Y018998D01*
X026675Y017817D01*
X025887Y017029D02*
X028958Y017029D01*
X028958Y016635D02*
X025887Y016635D01*
X025887Y013565D01*
X026084Y013565D02*
X026084Y010336D01*
X026281Y010139D01*
X026281Y004431D01*
X025297Y003446D01*
X024903Y003446D01*
X025297Y003053D02*
X023525Y003053D01*
X024116Y003446D02*
X022147Y003446D01*
X021754Y003840D01*
X013880Y003840D01*
X013380Y004340D01*
X013380Y005513D01*
X013880Y005513D02*
X013880Y008562D01*
X013880Y009069D01*
X012006Y009069D01*
X011124Y008943D02*
X011124Y009519D01*
X011124Y009746D01*
X011124Y010533D01*
X010889Y010767D01*
X010474Y010767D01*
X010026Y009519D02*
X011124Y009519D01*
X010026Y009519D02*
X010026Y007216D01*
X011006Y007069D02*
X011006Y006675D01*
X010730Y006399D01*
X008284Y006399D01*
X008284Y007216D01*
X008284Y009519D01*
X008230Y010767D02*
X007618Y010767D01*
X007383Y010533D01*
X007383Y007265D01*
X007383Y006596D01*
X007580Y006399D01*
X008284Y006399D01*
X007383Y007265D02*
X007108Y007265D01*
X006990Y007383D01*
X006990Y008155D01*
X006990Y008943D02*
X006990Y011767D01*
X008230Y011767D01*
X006990Y011767D02*
X006990Y012305D01*
X006990Y013092D02*
X006990Y013486D01*
X007187Y013683D01*
X013506Y018569D02*
X013506Y019569D01*
X013712Y019775D01*
X013712Y020277D01*
X014224Y020277D02*
X014224Y019287D01*
X014006Y019069D01*
X013506Y018569D02*
X014006Y018069D01*
X014736Y018338D02*
X015006Y018069D01*
X014736Y018338D02*
X014736Y020277D01*
X014736Y021094D01*
X014273Y021557D01*
X013092Y021557D01*
X012698Y021163D01*
X012698Y020761D01*
X012506Y020569D01*
X007742Y020569D01*
X007423Y020887D01*
X007423Y022305D01*
X008037Y022919D01*
X009175Y022919D01*
X009175Y022419D02*
X008246Y022419D01*
X008006Y022179D01*
X008006Y021069D01*
X008108Y020966D01*
X008801Y020966D01*
X009588Y020966D02*
X010139Y020966D01*
X010336Y021163D01*
X010336Y023419D01*
X012285Y023419D01*
X012285Y023919D02*
X012856Y023919D01*
X014006Y025069D01*
X014470Y024706D02*
X012683Y022919D01*
X012285Y022919D01*
X012285Y022419D02*
X012820Y022419D01*
X013289Y021950D01*
X014273Y021950D01*
X014992Y021232D01*
X014992Y020277D01*
X014992Y019082D01*
X016006Y018069D01*
X015848Y018801D02*
X016273Y018801D01*
X017006Y018069D01*
X017076Y018998D02*
X016045Y018998D01*
X015504Y019539D01*
X015504Y020277D01*
X015248Y020277D02*
X015248Y019401D01*
X015848Y018801D01*
X017076Y018998D02*
X018006Y018069D01*
X017734Y016990D02*
X018281Y016990D01*
X018832Y016439D01*
X019194Y016439D01*
X019785Y017029D01*
X020572Y017029D01*
X021360Y017817D01*
X022423Y017817D01*
X022423Y018013D02*
X021163Y018013D01*
X020376Y017226D01*
X019588Y017226D01*
X019194Y017620D01*
X019194Y019588D01*
X021006Y021399D01*
X021006Y023069D01*
X021006Y023675D01*
X022006Y023675D02*
X022006Y021069D01*
X021069Y021069D01*
X019391Y019391D01*
X019391Y017817D01*
X019785Y017423D01*
X020179Y017423D01*
X021163Y018407D01*
X022423Y018407D01*
X022423Y018210D02*
X024313Y018210D01*
X023919Y018604D01*
X023919Y020100D01*
X024116Y020100D02*
X024116Y022147D01*
X024706Y022738D01*
X024706Y025297D01*
X024313Y025691D01*
X019785Y025691D01*
X019391Y025297D01*
X019391Y023722D01*
X018998Y023328D01*
X017029Y023328D01*
X015454Y024903D01*
X015454Y026163D01*
X015257Y026163D02*
X015257Y025297D01*
X015159Y025198D01*
X015061Y025297D01*
X015061Y026163D01*
X015651Y026163D02*
X015651Y025100D01*
X017226Y023525D01*
X018801Y023525D01*
X019194Y023919D01*
X019194Y025494D01*
X019588Y025887D01*
X024509Y025887D01*
X024903Y025494D01*
X024903Y022541D01*
X024313Y021950D01*
X024313Y020100D01*
X023722Y020100D02*
X023722Y022147D01*
X024006Y022431D01*
X024006Y023069D01*
X024006Y023675D01*
X023006Y023675D02*
X023006Y022069D01*
X023525Y021549D01*
X023525Y020100D01*
X023328Y020100D02*
X023328Y020769D01*
X023131Y020966D01*
X022738Y020966D01*
X022340Y020569D01*
X021506Y020569D01*
X020006Y019069D01*
X020935Y018998D02*
X020006Y018069D01*
X020935Y018998D02*
X022423Y018998D01*
X022423Y019194D02*
X021557Y019194D01*
X021360Y019391D01*
X021360Y019982D01*
X021446Y020069D01*
X022006Y020069D01*
X023131Y019391D02*
X028250Y019391D01*
X028250Y014273D01*
X023328Y014273D01*
X023131Y014470D01*
X023131Y019391D01*
X023131Y019339D02*
X028250Y019339D01*
X028250Y019260D02*
X023131Y019260D01*
X023131Y019182D02*
X028250Y019182D01*
X028250Y019103D02*
X023131Y019103D01*
X023131Y019025D02*
X028250Y019025D01*
X028250Y018946D02*
X023131Y018946D01*
X023131Y018868D02*
X028250Y018868D01*
X028250Y018789D02*
X023131Y018789D01*
X023131Y018711D02*
X028250Y018711D01*
X028250Y018632D02*
X023131Y018632D01*
X023131Y018554D02*
X028250Y018554D01*
X028250Y018475D02*
X023131Y018475D01*
X023131Y018397D02*
X028250Y018397D01*
X028250Y018318D02*
X023131Y018318D01*
X023131Y018240D02*
X028250Y018240D01*
X028250Y018161D02*
X023131Y018161D01*
X023131Y018083D02*
X028250Y018083D01*
X028250Y018004D02*
X023131Y018004D01*
X023131Y017926D02*
X028250Y017926D01*
X028250Y017847D02*
X023131Y017847D01*
X023131Y017769D02*
X028250Y017769D01*
X028250Y017690D02*
X023131Y017690D01*
X023131Y017612D02*
X028250Y017612D01*
X028250Y017533D02*
X023131Y017533D01*
X023131Y017455D02*
X028250Y017455D01*
X028250Y017376D02*
X023131Y017376D01*
X023131Y017298D02*
X028250Y017298D01*
X028250Y017219D02*
X023131Y017219D01*
X023131Y017141D02*
X028250Y017141D01*
X028250Y017062D02*
X023131Y017062D01*
X023131Y016984D02*
X028250Y016984D01*
X028250Y016905D02*
X023131Y016905D01*
X023131Y016827D02*
X028250Y016827D01*
X028250Y016748D02*
X023131Y016748D01*
X023131Y016670D02*
X028250Y016670D01*
X028250Y016591D02*
X023131Y016591D01*
X023131Y016513D02*
X028250Y016513D01*
X028250Y016434D02*
X023131Y016434D01*
X023131Y016356D02*
X028250Y016356D01*
X028250Y016277D02*
X023131Y016277D01*
X023131Y016199D02*
X028250Y016199D01*
X028250Y016120D02*
X023131Y016120D01*
X023131Y016042D02*
X028250Y016042D01*
X028250Y015963D02*
X023131Y015963D01*
X023131Y015885D02*
X028250Y015885D01*
X028250Y015806D02*
X023131Y015806D01*
X023131Y015728D02*
X028250Y015728D01*
X028250Y015649D02*
X023131Y015649D01*
X023131Y015571D02*
X028250Y015571D01*
X028250Y015492D02*
X023131Y015492D01*
X023131Y015414D02*
X028250Y015414D01*
X028250Y015335D02*
X023131Y015335D01*
X023131Y015257D02*
X028250Y015257D01*
X028250Y015178D02*
X023131Y015178D01*
X023131Y015100D02*
X028250Y015100D01*
X028250Y015021D02*
X023131Y015021D01*
X023131Y014943D02*
X028250Y014943D01*
X028250Y014864D02*
X023131Y014864D01*
X023131Y014786D02*
X028250Y014786D01*
X028250Y014707D02*
X023131Y014707D01*
X023131Y014629D02*
X028250Y014629D01*
X028250Y014550D02*
X023131Y014550D01*
X023131Y014472D02*
X028250Y014472D01*
X028250Y014393D02*
X023209Y014393D01*
X023287Y014315D02*
X028250Y014315D01*
X028958Y014470D02*
X032332Y014470D01*
X032431Y014569D01*
X036813Y014569D01*
X037820Y013561D01*
X037820Y013072D01*
X037320Y013072D02*
X037320Y011895D01*
X040061Y009155D01*
X040061Y008565D01*
X040257Y008565D01*
X040454Y008368D01*
X040454Y007974D01*
X040061Y008565D02*
X039864Y008565D01*
X039667Y008368D01*
X039667Y007974D01*
X039667Y007187D02*
X039667Y006793D01*
X039470Y006596D01*
X038880Y006596D01*
X038880Y007187D01*
X038880Y006596D02*
X038796Y006512D01*
X038796Y005976D01*
X038796Y003673D01*
X037192Y003673D02*
X037192Y002856D01*
X040257Y002856D01*
X040538Y003136D01*
X040538Y003673D01*
X040538Y005976D01*
X040538Y006483D01*
X040454Y006596D01*
X040454Y007187D01*
X038880Y007974D02*
X038880Y008761D01*
X038572Y009069D01*
X038006Y009069D01*
X037502Y008565D02*
X036911Y008565D01*
X036911Y007974D01*
X036911Y008565D02*
X036820Y008655D01*
X036820Y009962D01*
X036320Y009962D02*
X036320Y010730D01*
X035927Y011124D01*
X032580Y011124D01*
X031793Y010336D01*
X031793Y009549D01*
X031596Y009352D01*
X030021Y009352D01*
X027659Y011714D01*
X027659Y013565D01*
X027462Y013565D02*
X027462Y011517D01*
X029824Y009155D01*
X031793Y009155D01*
X031990Y009352D01*
X031990Y010139D01*
X032777Y010927D01*
X035139Y010927D01*
X035320Y010746D01*
X035320Y009962D01*
X034820Y009962D02*
X034801Y009943D01*
X034801Y010478D01*
X034549Y010730D01*
X033171Y010730D01*
X032580Y010139D01*
X032580Y009155D01*
X032187Y008761D01*
X031399Y008761D01*
X031399Y007974D01*
X030612Y007974D02*
X030612Y008565D01*
X030809Y008761D01*
X031399Y008761D01*
X031399Y009549D02*
X031596Y009746D01*
X031596Y010533D01*
X032383Y011320D01*
X036714Y011320D01*
X037320Y010714D01*
X037320Y009962D01*
X037820Y009962D02*
X037820Y010805D01*
X037108Y011517D01*
X030612Y011517D01*
X029824Y012305D01*
X029824Y014069D01*
X030612Y014069D02*
X030612Y013486D01*
X031399Y013486D02*
X031399Y014069D01*
X032187Y014069D02*
X032187Y013486D01*
X032187Y012698D02*
X032187Y012305D01*
X032383Y012108D01*
X034006Y012108D01*
X034006Y013069D01*
X034820Y013072D02*
X034820Y012183D01*
X034746Y012108D01*
X034006Y012108D01*
X034943Y011911D02*
X031596Y011911D01*
X031399Y012108D01*
X031399Y012698D01*
X030612Y012698D02*
X030612Y012108D01*
X031006Y011714D01*
X035730Y011714D01*
X036320Y012305D01*
X036320Y013072D01*
X035320Y013072D02*
X035320Y012289D01*
X034943Y011911D01*
X035820Y009962D02*
X035820Y009639D01*
X034943Y008761D01*
X034943Y008565D01*
X034943Y007974D01*
X034943Y008565D02*
X034352Y008565D01*
X034155Y008368D01*
X034155Y007974D01*
X033368Y007974D02*
X033368Y008431D01*
X034006Y009069D01*
X036006Y009069D02*
X036124Y008950D01*
X036124Y007974D01*
X036124Y007187D02*
X036124Y006596D01*
X035533Y006596D01*
X035449Y006512D01*
X035449Y005976D01*
X035449Y003673D01*
X033845Y003673D02*
X033845Y002856D01*
X037192Y002856D01*
X037192Y003673D02*
X037192Y005976D01*
X037192Y006483D01*
X037305Y006596D01*
X037502Y006596D01*
X037698Y006793D01*
X037698Y007187D01*
X036911Y007187D02*
X036911Y006793D01*
X036714Y006596D01*
X036124Y006596D01*
X034943Y006596D02*
X034322Y005976D01*
X033845Y005976D01*
X033845Y003673D01*
X033845Y002856D02*
X030499Y002856D01*
X027462Y002856D01*
X027006Y003313D01*
X027006Y007069D01*
X028006Y007069D01*
X028006Y007675D01*
X028006Y008462D02*
X028006Y010069D01*
X027265Y010809D01*
X027265Y013565D01*
X027069Y013565D02*
X027069Y009131D01*
X027006Y009069D01*
X027006Y008462D01*
X027006Y007675D02*
X027006Y007069D01*
X028756Y006512D02*
X028756Y005976D01*
X028756Y003673D01*
X030499Y003673D02*
X030499Y002856D01*
X030499Y003673D02*
X030499Y005976D01*
X031173Y005976D01*
X031399Y006202D01*
X031399Y007187D01*
X030612Y007187D02*
X030612Y006793D01*
X030415Y006596D01*
X029824Y006596D01*
X029824Y007187D01*
X029824Y006596D02*
X028840Y006596D01*
X028756Y006512D01*
X029824Y007974D02*
X029824Y008565D01*
X029628Y008761D01*
X029313Y008761D01*
X029006Y009069D01*
X030218Y009549D02*
X031399Y009549D01*
X031006Y010069D02*
X031006Y010927D01*
X030809Y011124D01*
X030415Y011124D01*
X029628Y011124D02*
X029234Y011124D01*
X029006Y011352D01*
X029006Y012069D01*
X028486Y012069D01*
X028053Y012502D01*
X028053Y013565D01*
X027856Y013565D02*
X027856Y011911D01*
X030218Y009549D01*
X033368Y007187D02*
X033368Y006596D01*
X032187Y006596D01*
X032103Y006512D01*
X032103Y005976D01*
X032103Y003673D01*
X033368Y006596D02*
X033958Y006596D01*
X034155Y006793D01*
X034155Y007187D01*
X034943Y007187D02*
X034943Y006596D01*
X037698Y007974D02*
X037698Y008368D01*
X037502Y008565D01*
X043210Y009411D02*
X043710Y009911D01*
X036006Y015069D02*
X036006Y016069D01*
X035399Y016069D01*
X034612Y016069D02*
X034006Y016069D01*
X032210Y016069D01*
X032006Y015069D02*
X031998Y015069D01*
X031793Y014864D01*
X028958Y014864D01*
X026872Y015651D02*
X026872Y013565D01*
X026281Y013565D02*
X026281Y010533D01*
X026478Y010336D01*
X026478Y004234D01*
X025297Y003053D01*
X025297Y003840D02*
X023525Y003840D01*
X024116Y004234D02*
X015257Y004234D01*
X014880Y004612D01*
X014880Y005513D01*
X014380Y005513D02*
X014380Y004521D01*
X014864Y004037D01*
X021950Y004037D01*
X022147Y003840D01*
X022738Y003840D01*
X021950Y004431D02*
X022147Y004628D01*
X022738Y004628D01*
X022541Y005218D02*
X020769Y005218D01*
X019982Y005218D02*
X019391Y005218D01*
X019194Y005021D01*
X018407Y005021D01*
X018317Y005112D01*
X018317Y005513D01*
X018817Y005513D02*
X019293Y005513D01*
X019391Y005612D01*
X021360Y005612D01*
X022147Y005612D02*
X022541Y005612D01*
X023131Y006202D01*
X023131Y011320D01*
X023919Y012108D01*
X023919Y013565D01*
X024116Y013565D02*
X024116Y011911D01*
X023328Y011124D01*
X023328Y006006D01*
X022541Y005218D01*
X022147Y005021D02*
X024116Y005021D01*
X023525Y004628D02*
X025297Y004628D01*
X025691Y005021D01*
X025691Y009549D01*
X025100Y010139D01*
X025100Y013565D01*
X024903Y013565D02*
X024903Y009943D01*
X025494Y009352D01*
X025494Y005218D01*
X025297Y005021D01*
X024903Y005021D01*
X024903Y004234D02*
X025297Y004234D01*
X025887Y004824D01*
X025887Y009746D01*
X025297Y010336D01*
X025297Y013565D01*
X025494Y013565D02*
X025494Y010533D01*
X026084Y009943D01*
X026084Y004628D01*
X025297Y003840D01*
X022738Y003053D02*
X022147Y003053D01*
X021557Y003643D01*
X013683Y003643D01*
X012880Y004446D01*
X012880Y005513D01*
X011124Y007187D02*
X011006Y007069D01*
X011124Y007187D02*
X011124Y008155D01*
X013880Y008562D02*
X017817Y008562D01*
X017817Y010435D01*
X018317Y010435D02*
X018317Y007080D01*
X019391Y006006D01*
X019982Y006006D01*
X020769Y006006D02*
X022541Y006006D01*
X022935Y006399D01*
X022935Y011517D01*
X023722Y012305D01*
X023722Y013565D01*
X023525Y013565D02*
X023525Y012502D01*
X022738Y011714D01*
X022738Y006596D01*
X022541Y006399D01*
X022147Y006399D01*
X021360Y006399D02*
X019785Y006399D01*
X018817Y007368D01*
X018817Y010435D01*
X018604Y011124D02*
X017423Y011124D01*
X017317Y011017D01*
X017317Y010435D01*
X016817Y010435D02*
X016817Y011108D01*
X017029Y011320D01*
X018407Y011320D01*
X018801Y011714D01*
X018801Y013880D01*
X019194Y013289D02*
X019194Y014864D01*
X019391Y015061D01*
X020572Y015061D01*
X020966Y015454D01*
X022423Y015454D01*
X022423Y015257D02*
X021163Y015257D01*
X019982Y014076D01*
X019982Y010092D01*
X020006Y010069D01*
X020006Y008462D01*
X020006Y007675D02*
X020006Y007069D01*
X021006Y007069D01*
X021006Y007675D01*
X021006Y008462D02*
X021006Y009069D01*
X021006Y009903D01*
X020179Y010730D01*
X020179Y013880D01*
X021360Y015061D01*
X022423Y015061D01*
X022423Y014667D02*
X021360Y014667D01*
X020376Y013683D01*
X020376Y012698D01*
X020966Y012108D01*
X020966Y011714D01*
X020966Y010927D02*
X020966Y010462D01*
X021360Y010069D01*
X022006Y010069D01*
X021950Y010124D01*
X021950Y010927D01*
X021950Y011714D02*
X021950Y012305D01*
X021950Y013013D01*
X022006Y013069D01*
X021950Y012305D02*
X022738Y012305D01*
X023328Y012895D01*
X023328Y013565D01*
X024313Y013565D02*
X024313Y011376D01*
X024006Y011069D01*
X024006Y008462D01*
X024006Y007675D02*
X024006Y007069D01*
X025006Y007069D01*
X025006Y007675D01*
X025006Y008462D02*
X025006Y009069D01*
X024990Y009069D01*
X024706Y009352D01*
X024706Y013565D01*
X024509Y013565D02*
X024509Y015651D01*
X024706Y015848D01*
X025494Y017029D02*
X024313Y018210D01*
X025494Y017029D02*
X022423Y017029D01*
X022423Y015651D02*
X020769Y015651D01*
X020376Y015257D01*
X018998Y015257D01*
X018801Y015061D01*
X018801Y014667D01*
X017226Y013880D02*
X017226Y012502D01*
X016006Y013840D02*
X016006Y016069D01*
X015809Y016990D02*
X015076Y016257D01*
X015076Y015191D01*
X016006Y013840D02*
X015702Y013537D01*
X015076Y013537D01*
X018604Y011124D02*
X019194Y011714D01*
X019194Y012502D01*
X021006Y013069D02*
X021006Y013919D01*
X021557Y014470D01*
X022423Y014470D01*
X019006Y017069D02*
X018998Y017076D01*
X018998Y019785D01*
X020179Y020966D01*
X020179Y021754D01*
X019391Y022541D01*
X016635Y022541D01*
X016045Y021950D01*
X014667Y021950D01*
X014480Y022137D01*
X014480Y022836D01*
X014224Y022836D02*
X014224Y023476D01*
X014273Y023525D01*
X015651Y023525D01*
X016045Y023919D01*
X014667Y025297D01*
X014667Y025691D01*
X013683Y026675D01*
X013683Y027659D01*
X013880Y027856D01*
X014352Y027856D01*
X014962Y027895D02*
X017324Y027895D01*
X017324Y027817D02*
X014962Y027817D01*
X014962Y027738D02*
X017324Y027738D01*
X017324Y027660D02*
X014962Y027660D01*
X014962Y027581D02*
X017324Y027581D01*
X017324Y027503D02*
X014962Y027503D01*
X014962Y027424D02*
X017324Y027424D01*
X017324Y027346D02*
X014962Y027346D01*
X014962Y027267D02*
X017324Y027267D01*
X017324Y027189D02*
X014962Y027189D01*
X014962Y027110D02*
X017324Y027110D01*
X017324Y027032D02*
X014962Y027032D01*
X014962Y026953D02*
X017324Y026953D01*
X017324Y026875D02*
X014962Y026875D01*
X014962Y026796D02*
X017249Y026796D01*
X017226Y026773D02*
X014962Y026773D01*
X014962Y029135D01*
X017324Y029135D01*
X017324Y026872D01*
X017226Y026773D01*
X017029Y027069D02*
X016635Y027462D01*
X016242Y027856D01*
X015061Y029037D01*
X014667Y029431D01*
X013596Y029431D01*
X013006Y028840D01*
X013006Y027069D01*
X012502Y026675D02*
X012895Y026281D01*
X013683Y026281D01*
X014470Y025494D01*
X014470Y024706D01*
X014226Y024069D02*
X013880Y023722D01*
X013968Y023633D01*
X013968Y022836D01*
X013712Y022836D02*
X013712Y023555D01*
X013880Y023722D01*
X014226Y024069D02*
X015006Y024069D01*
X016045Y023919D02*
X016895Y023069D01*
X020006Y023069D01*
X020006Y023675D01*
X019588Y022738D02*
X016439Y022738D01*
X016340Y022836D01*
X016015Y022836D01*
X017006Y022069D02*
X017084Y022147D01*
X019391Y022147D01*
X019785Y021754D01*
X019785Y021360D01*
X019588Y021163D01*
X019194Y021163D01*
X018407Y021163D02*
X018013Y021163D01*
X018006Y021155D01*
X018006Y020069D01*
X017006Y020069D02*
X016549Y020069D01*
X016340Y020277D01*
X016015Y020277D01*
X016015Y020937D01*
X016242Y021163D01*
X016832Y021163D01*
X017620Y021163D02*
X018013Y021163D01*
X019588Y022738D02*
X019785Y022541D01*
X020281Y022541D01*
X020506Y022765D01*
X020506Y025069D01*
X021006Y025069D01*
X022006Y025069D01*
X023006Y025069D01*
X024006Y025069D01*
X024006Y024462D01*
X023006Y024462D02*
X023006Y025069D01*
X022006Y025069D02*
X022006Y024462D01*
X021006Y024462D02*
X021006Y025069D01*
X020506Y025069D02*
X020006Y025069D01*
X020006Y024462D01*
X018998Y025100D02*
X018998Y025691D01*
X019391Y026084D01*
X024706Y026084D01*
X025100Y025691D01*
X034549Y025691D01*
X035533Y024706D01*
X040651Y024706D01*
X041832Y025887D01*
X041832Y026281D01*
X040356Y026281D01*
X041832Y026281D02*
X041832Y027069D01*
X040848Y028053D01*
X040061Y028053D01*
X039273Y028053D02*
X038486Y028053D01*
X038486Y028446D01*
X036517Y028446D01*
X034352Y026281D01*
X033761Y026281D01*
X034352Y026675D02*
X036124Y028446D01*
X036124Y029628D01*
X035374Y030378D01*
X034608Y030378D01*
X034608Y029878D02*
X035283Y029878D01*
X035730Y029431D01*
X035730Y028446D01*
X034155Y026872D01*
X032187Y026872D01*
X031793Y026478D01*
X025887Y026478D01*
X024509Y027856D01*
X022344Y027856D01*
X021360Y026872D01*
X017935Y026872D01*
X017935Y027069D02*
X021163Y027069D01*
X022147Y028053D01*
X024706Y028053D01*
X026084Y026675D01*
X031596Y026675D01*
X031990Y027069D01*
X033958Y027069D01*
X035336Y028446D01*
X035336Y029037D01*
X034996Y029378D01*
X034608Y029378D01*
X034011Y029378D01*
X033958Y029431D01*
X033958Y030415D01*
X033761Y030612D01*
X033565Y030612D01*
X033368Y030415D01*
X033368Y030021D01*
X033368Y029234D02*
X033368Y028643D01*
X033761Y028643D01*
X033996Y028878D01*
X034608Y028878D01*
X034006Y028069D02*
X032663Y028069D01*
X032187Y028545D01*
X032187Y028781D01*
X031281Y028781D01*
X032187Y028781D02*
X032187Y030651D01*
X031970Y030868D01*
X031281Y030868D01*
X032580Y030612D02*
X032580Y030021D01*
X032580Y030612D02*
X032777Y030809D01*
X038289Y030809D01*
X038486Y030612D01*
X038486Y030378D01*
X036852Y030378D01*
X036852Y028878D02*
X038486Y028878D01*
X038486Y028446D01*
X038486Y028053D02*
X037698Y028053D01*
X037990Y028053D01*
X038486Y028878D02*
X038815Y028878D01*
X039006Y029069D01*
X038486Y030378D02*
X040689Y030378D01*
X041006Y030061D01*
X041006Y029069D01*
X036911Y028053D02*
X036517Y028053D01*
X035139Y026675D01*
X035139Y026281D01*
X036616Y026281D01*
X035139Y026281D02*
X034746Y025887D01*
X025297Y025887D01*
X024903Y026281D01*
X019194Y026281D01*
X018801Y025887D01*
X018801Y025297D01*
X018407Y024903D01*
X017029Y024903D01*
X016439Y025494D01*
X016439Y026163D01*
X016635Y026163D02*
X016635Y027462D01*
X016242Y027856D02*
X016242Y029746D01*
X016242Y030415D01*
X016439Y030612D01*
X018210Y030612D01*
X017817Y030069D02*
X020006Y030069D01*
X019462Y030612D01*
X018998Y030612D01*
X017817Y030069D02*
X017470Y030415D01*
X017226Y030415D01*
X017029Y030218D01*
X017029Y029746D01*
X017324Y029073D02*
X014962Y029073D01*
X014962Y028994D02*
X017324Y028994D01*
X017324Y028916D02*
X014962Y028916D01*
X014962Y028837D02*
X017324Y028837D01*
X017324Y028759D02*
X014962Y028759D01*
X014962Y028680D02*
X017324Y028680D01*
X017324Y028602D02*
X014962Y028602D01*
X014962Y028523D02*
X017324Y028523D01*
X017324Y028445D02*
X014962Y028445D01*
X014962Y028366D02*
X017324Y028366D01*
X017324Y028288D02*
X014962Y028288D01*
X014962Y028209D02*
X017324Y028209D01*
X017324Y028131D02*
X014962Y028131D01*
X014962Y028052D02*
X017324Y028052D01*
X017324Y027974D02*
X014962Y027974D01*
X014352Y027265D02*
X015651Y027265D01*
X016242Y027856D01*
X016832Y028446D01*
X017935Y028446D01*
X017935Y028250D02*
X018785Y028250D01*
X019006Y028470D01*
X019006Y029069D01*
X017935Y028053D02*
X020187Y028053D01*
X020506Y028372D01*
X020506Y030372D01*
X020769Y030612D01*
X024116Y030612D01*
X024116Y030218D01*
X023919Y030021D01*
X023328Y030021D01*
X022541Y030021D02*
X021950Y030021D01*
X021360Y029431D01*
X021360Y028053D01*
X020966Y027659D01*
X017935Y027659D01*
X017935Y027856D02*
X020769Y027856D01*
X020966Y028053D01*
X020966Y028446D01*
X020966Y029234D02*
X020966Y030029D01*
X021006Y030069D01*
X022006Y029069D02*
X022565Y029628D01*
X024706Y029628D01*
X025494Y029628D02*
X026084Y029628D01*
X026281Y029431D01*
X026281Y027659D01*
X026675Y027265D01*
X029628Y027265D01*
X029943Y027580D01*
X029943Y028683D01*
X029628Y028683D02*
X029628Y027659D01*
X029431Y027462D01*
X026872Y027462D01*
X026478Y027856D01*
X026478Y030218D01*
X026084Y030612D01*
X025494Y030612D01*
X024706Y030612D02*
X024116Y030612D01*
X023006Y029069D02*
X022187Y028250D01*
X021950Y028250D01*
X020966Y027265D01*
X017935Y027265D01*
X017029Y027069D02*
X017029Y026163D01*
X016832Y026163D02*
X016832Y025494D01*
X017226Y025100D01*
X018210Y025100D01*
X018604Y025494D01*
X018604Y026084D01*
X018998Y026478D01*
X021950Y026478D01*
X021950Y026675D01*
X022147Y026872D01*
X022541Y026872D01*
X021950Y026478D02*
X025100Y026478D01*
X025494Y026084D01*
X032187Y026084D01*
X032383Y026281D01*
X032974Y026281D01*
X032383Y026675D02*
X034352Y026675D01*
X032383Y026675D02*
X031990Y026281D01*
X025691Y026281D01*
X024313Y027659D01*
X022541Y027659D01*
X021557Y026675D01*
X018801Y026675D01*
X018407Y026281D01*
X018407Y025691D01*
X018013Y025297D01*
X017423Y025297D01*
X017226Y025494D01*
X017226Y026163D01*
X016242Y026163D02*
X016242Y025297D01*
X016832Y024706D01*
X018604Y024706D01*
X018998Y025100D01*
X018006Y024069D02*
X017076Y024069D01*
X016045Y025100D01*
X016045Y026163D01*
X013092Y025691D02*
X013092Y024706D01*
X012805Y024419D01*
X012285Y024419D01*
X012285Y024919D02*
X010336Y024919D01*
X010336Y023919D01*
X009175Y023919D01*
X009175Y024419D02*
X008065Y024419D01*
X007383Y025100D01*
X007383Y026281D01*
X008565Y027462D01*
X010533Y027462D01*
X011124Y028053D01*
X011124Y030021D01*
X011714Y030612D01*
X015257Y030612D01*
X015454Y030415D01*
X015454Y029746D01*
X015454Y029628D01*
X015257Y029746D02*
X015257Y030218D01*
X015061Y030415D01*
X012108Y030415D01*
X011714Y030021D01*
X011714Y029234D01*
X011714Y028446D02*
X011714Y027069D01*
X013092Y025691D01*
X012285Y025789D02*
X012285Y025419D01*
X012285Y025789D02*
X011006Y027069D01*
X010336Y027069D01*
X009549Y027069D02*
X009155Y027069D01*
X009006Y026919D01*
X009006Y026069D01*
X009175Y025419D02*
X010017Y025419D01*
X010336Y025100D01*
X010336Y024919D01*
X009175Y024919D02*
X008352Y024919D01*
X008006Y025265D01*
X008006Y026069D01*
X007187Y026478D02*
X008368Y027659D01*
X010336Y027659D01*
X010533Y027856D01*
X010533Y028446D01*
X010533Y029234D02*
X010533Y030021D01*
X011320Y030809D01*
X015454Y030809D01*
X015651Y030612D01*
X015651Y029746D01*
X015061Y029746D02*
X015061Y030021D01*
X014864Y030218D01*
X012698Y030218D01*
X012502Y030021D01*
X012502Y029234D01*
X012502Y028446D02*
X012502Y026675D01*
X014352Y029037D02*
X015061Y029037D01*
X010336Y023919D02*
X010336Y023419D01*
X009175Y023419D02*
X007687Y023419D01*
X007187Y023919D01*
X007187Y026478D01*
X010336Y021163D02*
X010911Y021163D01*
X011006Y021069D01*
X013006Y020966D02*
X013006Y019069D01*
X014480Y020277D02*
X014480Y020956D01*
X014273Y021163D01*
X013202Y021163D01*
X013006Y020966D01*
X015809Y016990D02*
X016946Y016990D01*
X013880Y010435D02*
X013880Y009069D01*
X017817Y008562D02*
X017817Y005513D01*
X017317Y005513D02*
X017317Y004931D01*
X017620Y004628D01*
X021754Y004628D01*
X022147Y005021D01*
X021950Y004431D02*
X017423Y004431D01*
X016817Y005037D01*
X016817Y005513D01*
X032006Y015069D02*
X034612Y015069D01*
X035399Y015069D02*
X036006Y015069D01*
X038006Y017069D02*
X038919Y017069D01*
X042214Y019860D02*
X041506Y020569D01*
X036006Y021069D02*
X036006Y022069D01*
X035399Y022069D01*
X034612Y022069D02*
X034006Y022069D01*
X034612Y020069D02*
X033006Y020069D01*
X031683Y020069D01*
X030021Y018407D01*
X028958Y018407D01*
X035399Y020069D02*
X036006Y020069D01*
X029234Y027659D02*
X028998Y027659D01*
X028998Y028683D01*
X029313Y028683D02*
X029313Y027738D01*
X029234Y027659D01*
X028998Y027659D02*
X027265Y027659D01*
X027006Y027919D01*
X027006Y028781D01*
X027974Y028781D01*
X027006Y028781D02*
X027006Y030069D01*
X027006Y030785D01*
X027088Y030868D01*
X027974Y030868D01*
X032580Y029234D02*
X032580Y028840D01*
X032777Y028643D01*
X033368Y028643D01*
X024006Y027069D02*
X023809Y026872D01*
X023328Y026872D01*
D15*
X024006Y027069D03*
X024006Y025069D03*
X023006Y025069D03*
X022006Y025069D03*
X021006Y025069D03*
X020006Y025069D03*
X020006Y023069D03*
X021006Y023069D03*
X023006Y022069D03*
X022006Y021069D03*
X022006Y020069D03*
X020006Y019069D03*
X020006Y018069D03*
X019006Y017069D03*
X018006Y018069D03*
X017006Y018069D03*
X016006Y018069D03*
X015006Y018069D03*
X014006Y018069D03*
X014006Y019069D03*
X013006Y019069D03*
X012006Y020069D03*
X010006Y020069D03*
X009474Y018832D03*
X009474Y017832D03*
X009474Y016832D03*
X009474Y015832D03*
X009474Y014832D03*
X016006Y016069D03*
X017006Y020069D03*
X018006Y020069D03*
X017006Y022069D03*
X018006Y024069D03*
X015006Y024069D03*
X014006Y025069D03*
X013006Y027069D03*
X011006Y027069D03*
X009006Y026069D03*
X008006Y026069D03*
X008006Y021069D03*
X019006Y029069D03*
X020006Y030069D03*
X021006Y030069D03*
X022006Y029069D03*
X023006Y029069D03*
X027006Y030069D03*
X034006Y028069D03*
X039006Y029069D03*
X041006Y029069D03*
X043006Y027069D03*
X044006Y026069D03*
X041006Y023069D03*
X041006Y022069D03*
X041006Y021069D03*
X041006Y020069D03*
X039006Y020069D03*
X039006Y021069D03*
X039006Y022069D03*
X039006Y023069D03*
X036006Y022069D03*
X036006Y021069D03*
X036006Y020069D03*
X036006Y019069D03*
X034006Y019069D03*
X033006Y020069D03*
X032006Y021069D03*
X034006Y022069D03*
X030006Y020069D03*
X029006Y020069D03*
X031006Y018069D03*
X034006Y016069D03*
X036006Y016069D03*
X036006Y015069D03*
X036006Y014069D03*
X034006Y013069D03*
X032006Y015069D03*
X029006Y012069D03*
X028006Y010069D03*
X029006Y009069D03*
X031006Y010069D03*
X034006Y009069D03*
X036006Y009069D03*
X038006Y009069D03*
X038006Y014069D03*
X038006Y015069D03*
X038006Y016069D03*
X038006Y017069D03*
X040006Y017069D03*
X040006Y016069D03*
X040006Y015069D03*
X040006Y014069D03*
X043006Y017069D03*
X044006Y016069D03*
X028006Y023069D03*
X024006Y023069D03*
X022006Y013069D03*
X021006Y013069D03*
X024006Y011069D03*
X022006Y010069D03*
X021006Y009069D03*
X020006Y010069D03*
X020006Y007069D03*
X021006Y007069D03*
X024006Y007069D03*
X025006Y007069D03*
X027006Y007069D03*
X028006Y007069D03*
X027006Y009069D03*
X025006Y009069D03*
X012006Y009069D03*
X011006Y007069D03*
D16*
X011124Y008155D03*
X011124Y008943D03*
X011911Y012305D03*
X011911Y013092D03*
X006990Y013092D03*
X006990Y012305D03*
X006990Y008943D03*
X006990Y008155D03*
X017226Y013880D03*
X017620Y013289D03*
X018013Y013880D03*
X018407Y013289D03*
X018801Y013880D03*
X019194Y013289D03*
X019194Y012502D03*
X018407Y012502D03*
X017620Y012502D03*
X018013Y014667D03*
X017226Y014667D03*
X018801Y014667D03*
X017734Y016990D03*
X016946Y016990D03*
X016832Y021163D03*
X017620Y021163D03*
X018407Y021163D03*
X019194Y021163D03*
X020006Y023675D03*
X021006Y023675D03*
X022006Y023675D03*
X023006Y023675D03*
X024006Y023675D03*
X024006Y024462D03*
X023006Y024462D03*
X022006Y024462D03*
X021006Y024462D03*
X020006Y024462D03*
X022541Y026872D03*
X023328Y026872D03*
X023919Y028840D03*
X024706Y028840D03*
X024706Y029628D03*
X025494Y029628D03*
X025494Y030612D03*
X024706Y030612D03*
X023328Y030021D03*
X022541Y030021D03*
X020966Y029234D03*
X020966Y028446D03*
X018998Y030612D03*
X018210Y030612D03*
X012502Y029234D03*
X012502Y028446D03*
X011714Y028446D03*
X011714Y029234D03*
X010533Y029234D03*
X010533Y028446D03*
X010336Y027069D03*
X009549Y027069D03*
X009588Y020966D03*
X008801Y020966D03*
X020966Y011714D03*
X020966Y010927D03*
X021950Y010927D03*
X021950Y011714D03*
X021006Y008462D03*
X021006Y007675D03*
X020006Y007675D03*
X020006Y008462D03*
X021360Y006399D03*
X022147Y006399D03*
X022147Y005612D03*
X021360Y005612D03*
X020769Y006006D03*
X019982Y006006D03*
X019982Y005218D03*
X020769Y005218D03*
X022738Y004628D03*
X023525Y004628D03*
X024116Y005021D03*
X024116Y004234D03*
X023525Y003840D03*
X024116Y003446D03*
X023525Y003053D03*
X022738Y003053D03*
X022738Y003840D03*
X024903Y003446D03*
X024903Y004234D03*
X024903Y005021D03*
X025006Y007675D03*
X025006Y008462D03*
X024006Y008462D03*
X024006Y007675D03*
X027006Y007675D03*
X027006Y008462D03*
X028006Y008462D03*
X028006Y007675D03*
X029824Y007974D03*
X029824Y007187D03*
X030612Y007187D03*
X030612Y007974D03*
X031399Y007974D03*
X031399Y007187D03*
X033368Y007187D03*
X034155Y007187D03*
X034155Y007974D03*
X033368Y007974D03*
X034943Y007974D03*
X034943Y007187D03*
X036124Y007187D03*
X036911Y007187D03*
X036911Y007974D03*
X036124Y007974D03*
X037698Y007974D03*
X037698Y007187D03*
X038880Y007187D03*
X039667Y007187D03*
X039667Y007974D03*
X040454Y007974D03*
X040454Y007187D03*
X038880Y007974D03*
X032187Y012698D03*
X031399Y012698D03*
X030612Y012698D03*
X030612Y013486D03*
X031399Y013486D03*
X032187Y013486D03*
X034612Y015069D03*
X035399Y015069D03*
X035399Y016069D03*
X034612Y016069D03*
X034612Y019069D03*
X035399Y019069D03*
X035399Y020069D03*
X034612Y020069D03*
X034612Y021069D03*
X035399Y021069D03*
X035399Y022069D03*
X034612Y022069D03*
X031990Y022935D03*
X031202Y022935D03*
X029628Y022935D03*
X028840Y022935D03*
X029037Y021754D03*
X029824Y021360D03*
X030612Y021360D03*
X028250Y021754D03*
X032974Y026281D03*
X033761Y026281D03*
X032974Y027462D03*
X032187Y027462D03*
X032580Y029234D03*
X032580Y030021D03*
X033368Y030021D03*
X033368Y029234D03*
X036911Y028053D03*
X037698Y028053D03*
X039273Y028053D03*
X040061Y028053D03*
X030415Y011124D03*
X029628Y011124D03*
D17*
X017935Y026872D03*
X017935Y027069D03*
X017935Y027265D03*
X017935Y027462D03*
X017935Y027659D03*
X017935Y027856D03*
X017935Y028053D03*
X017935Y028250D03*
X017935Y028446D03*
X017935Y028643D03*
X017935Y028840D03*
X017935Y029037D03*
X014352Y029037D03*
X014352Y028840D03*
X014352Y028643D03*
X014352Y028446D03*
X014352Y028250D03*
X014352Y028053D03*
X014352Y027856D03*
X014352Y027659D03*
X014352Y027462D03*
X014352Y027265D03*
X014352Y027069D03*
X014352Y026872D03*
D18*
X015061Y026163D03*
X015257Y026163D03*
X015454Y026163D03*
X015651Y026163D03*
X015848Y026163D03*
X016045Y026163D03*
X016242Y026163D03*
X016439Y026163D03*
X016635Y026163D03*
X016832Y026163D03*
X017029Y026163D03*
X017226Y026163D03*
X017226Y029746D03*
X017029Y029746D03*
X016832Y029746D03*
X016635Y029746D03*
X016439Y029746D03*
X016242Y029746D03*
X016045Y029746D03*
X015848Y029746D03*
X015651Y029746D03*
X015454Y029746D03*
X015257Y029746D03*
X015061Y029746D03*
D19*
X028998Y028683D03*
X029313Y028683D03*
X029628Y028683D03*
X029943Y028683D03*
X030257Y028683D03*
D20*
X031281Y028781D03*
X031281Y030868D03*
X027974Y030868D03*
X027974Y028781D03*
D21*
X016015Y022836D03*
X015759Y022836D03*
X015504Y022836D03*
X015248Y022836D03*
X014992Y022836D03*
X014736Y022836D03*
X014480Y022836D03*
X014224Y022836D03*
X013968Y022836D03*
X013712Y022836D03*
X013712Y020277D03*
X013968Y020277D03*
X014224Y020277D03*
X014480Y020277D03*
X014736Y020277D03*
X014992Y020277D03*
X015248Y020277D03*
X015504Y020277D03*
X015759Y020277D03*
X016015Y020277D03*
D22*
X007974Y029628D03*
X007974Y004037D03*
X043407Y004037D03*
X043407Y029628D03*
D23*
X018817Y010435D03*
X018317Y010435D03*
X017817Y010435D03*
X017317Y010435D03*
X016817Y010435D03*
X014880Y010435D03*
X014380Y010435D03*
X013880Y010435D03*
X013380Y010435D03*
X012880Y010435D03*
X012880Y005513D03*
X013380Y005513D03*
X013880Y005513D03*
X014380Y005513D03*
X014880Y005513D03*
X016817Y005513D03*
X017317Y005513D03*
X017817Y005513D03*
X018317Y005513D03*
X018817Y005513D03*
D24*
X010026Y007216D03*
X008284Y007216D03*
X008284Y009519D03*
X010026Y009519D03*
X028756Y005976D03*
X030499Y005976D03*
X032103Y005976D03*
X033845Y005976D03*
X035449Y005976D03*
X037192Y005976D03*
X038796Y005976D03*
X040538Y005976D03*
X040538Y003673D03*
X038796Y003673D03*
X037192Y003673D03*
X035449Y003673D03*
X033845Y003673D03*
X032103Y003673D03*
X030499Y003673D03*
X028756Y003673D03*
D25*
X042710Y009911D03*
X043710Y009911D03*
X043710Y010911D03*
X042710Y010911D03*
X042710Y011911D03*
X043710Y011911D03*
X043710Y012911D03*
X042710Y012911D03*
X042710Y013911D03*
X043710Y013911D03*
X043710Y019360D03*
X042710Y019360D03*
X042710Y020360D03*
X042710Y021360D03*
X043710Y021360D03*
X043710Y020360D03*
X043710Y022360D03*
X042710Y022360D03*
X042710Y023360D03*
X043710Y023360D03*
X012006Y021069D03*
X011006Y021069D03*
D26*
X012285Y022419D03*
X012285Y022919D03*
X012285Y023419D03*
X012285Y023919D03*
X012285Y024419D03*
X012285Y024919D03*
X012285Y025419D03*
X009175Y025419D03*
X009175Y024919D03*
X009175Y024419D03*
X009175Y023919D03*
X009175Y023419D03*
X009175Y022919D03*
X009175Y022419D03*
D27*
X008230Y012267D03*
X008230Y011767D03*
X008230Y011267D03*
X008230Y010767D03*
X010474Y010767D03*
X010474Y011267D03*
X010474Y011767D03*
X010474Y012267D03*
X034608Y028878D03*
X034608Y029378D03*
X034608Y029878D03*
X034608Y030378D03*
X036852Y030378D03*
X036852Y029878D03*
X036852Y029378D03*
X036852Y028878D03*
D28*
X036616Y026281D03*
X040356Y026281D03*
D29*
X015076Y015191D03*
X015076Y013537D03*
X013076Y013537D03*
X013076Y015191D03*
D30*
X034820Y013072D03*
X035320Y013072D03*
X035820Y013072D03*
X036320Y013072D03*
X036820Y013072D03*
X037320Y013072D03*
X037820Y013072D03*
X037820Y009962D03*
X037320Y009962D03*
X036820Y009962D03*
X036320Y009962D03*
X035820Y009962D03*
X035320Y009962D03*
X034820Y009962D03*
D31*
X036006Y014069D02*
X032187Y014069D01*
X031399Y014069D01*
X030612Y014069D01*
X029824Y014069D01*
X028454Y014069D01*
X027462Y015061D01*
X026380Y026970D02*
X029923Y026970D01*
X030257Y027305D01*
X030257Y027462D01*
X032187Y027462D01*
X032974Y027462D02*
X033399Y027462D01*
X034006Y028069D01*
X030257Y027462D02*
X030257Y028683D01*
X026380Y026970D02*
X025691Y027659D01*
X025691Y028643D01*
X025494Y028840D01*
X024706Y028840D01*
X023919Y028840D02*
X023234Y028840D01*
X023006Y029069D01*
X012006Y020069D02*
X012006Y015832D01*
X011911Y015832D01*
X009474Y015832D01*
X007474Y015832D01*
X007474Y016832D02*
X007580Y016832D01*
X011124Y016832D01*
X011517Y017226D01*
X009474Y017832D02*
X007474Y017832D01*
X007474Y018832D02*
X006596Y018832D01*
X006596Y014832D01*
X007474Y014832D01*
X009474Y014832D01*
X009474Y018832D02*
X007474Y018832D01*
D32*
X010006Y020069D02*
X010756Y020069D01*
X011517Y019307D01*
X011517Y017226D01*
D33*
X042710Y014773D02*
X042710Y013911D01*
X043710Y013911D02*
X043710Y014773D01*
X044006Y015069D01*
X044006Y016069D01*
X043006Y017069D02*
X043006Y015069D01*
X042710Y014773D01*
X042710Y023360D02*
X042710Y024773D01*
X043006Y025069D01*
X043006Y027069D01*
X044006Y026069D02*
X044006Y025069D01*
X043710Y024773D01*
X043710Y023360D01*
M02*
