%
M48
M72
T01C0.0315
T02C0.0394
T03C0.1260
%
T01
X8006Y26069
X9006Y26069
X11006Y27069
X13006Y27069
X14006Y25069
X15006Y24069
X17006Y22069
X17006Y20069
X18006Y20069
X18006Y18069
X17006Y18069
X16006Y18069
X15006Y18069
X14006Y18069
X14006Y19069
X13006Y19069
X12006Y20069
X12006Y21069
X11006Y21069
X10006Y20069
X9474Y18832
X9474Y17832
X9474Y16832
X9474Y15832
X9474Y14832
X16006Y16069
X19006Y17069
X20006Y18069
X20006Y19069
X22006Y20069
X22006Y21069
X23006Y22069
X24006Y23069
X24006Y25069
X23006Y25069
X22006Y25069
X21006Y25069
X20006Y25069
X20006Y23069
X21006Y23069
X18006Y24069
X19006Y29069
X20006Y30069
X21006Y30069
X22006Y29069
X23006Y29069
X24006Y27069
X27006Y30069
X34006Y28069
X39006Y29069
X41006Y29069
X43006Y27069
X44006Y26069
X41006Y23069
X41006Y22069
X41006Y21069
X41006Y20069
X39006Y20069
X39006Y21069
X39006Y22069
X39006Y23069
X36006Y22069
X36006Y21069
X36006Y20069
X36006Y19069
X34006Y19069
X33006Y20069
X32006Y21069
X34006Y22069
X30006Y20069
X29006Y20069
X31006Y18069
X34006Y16069
X36006Y16069
X36006Y15069
X36006Y14069
X34006Y13069
X32006Y15069
X29006Y12069
X28006Y10069
X29006Y9069
X31006Y10069
X34006Y9069
X36006Y9069
X38006Y9069
X38006Y14069
X38006Y15069
X38006Y16069
X38006Y17069
X40006Y17069
X40006Y16069
X40006Y15069
X40006Y14069
X43006Y17069
X44006Y16069
X28006Y23069
X22006Y13069
X21006Y13069
X24006Y11069
X22006Y10069
X21006Y9069
X20006Y10069
X20006Y7069
X21006Y7069
X24006Y7069
X25006Y7069
X27006Y7069
X28006Y7069
X27006Y9069
X25006Y9069
X12006Y9069
X11006Y7069
X8006Y21069
T02
X7474Y18832
X8474Y18832
X8474Y17832
X7474Y17832
X7474Y16832
X7474Y15832
X8474Y15832
X8474Y16832
X8474Y14832
X7474Y14832
X42710Y13911
X42710Y12911
X43710Y12911
X43710Y13911
X43710Y11911
X42710Y11911
X42710Y10911
X43710Y10911
X43710Y9911
X42710Y9911
X42710Y19360
X43710Y19360
X43710Y20360
X42710Y20360
X42710Y21360
X43710Y21360
X43710Y22360
X42710Y22360
X42710Y23360
X43710Y23360
T03
X7974Y4037
X43407Y4037
X43407Y29628
X7974Y29628
M30
