G75*
%MOIN*%
%OFA0B0*%
%FSLAX24Y24*%
%IPPOS*%
%LPD*%
%AMOC8*
5,1,8,0,0,1.08239X$1,22.5*
%
%ADD10C,0.0000*%
%ADD11R,0.0218X0.0907*%
%ADD12R,0.0907X0.0218*%
%ADD13C,0.0907*%
%ADD14C,0.0750*%
%ADD15R,0.0514X0.0514*%
%ADD16R,0.0394X0.0394*%
%ADD17R,0.0394X0.0197*%
%ADD18R,0.0197X0.0394*%
%ADD19R,0.0711X0.0218*%
%ADD20R,0.0218X0.0711*%
%ADD21R,0.0317X0.0907*%
%ADD22R,0.1104X0.0986*%
%ADD23R,0.0258X0.0711*%
%ADD24C,0.2285*%
%ADD25R,0.0396X0.0711*%
%ADD26R,0.0839X0.0966*%
%ADD27C,0.0829*%
%ADD28R,0.0711X0.0419*%
%ADD29R,0.0829X0.0356*%
%ADD30R,0.2285X0.0907*%
%ADD31R,0.0829X0.0907*%
%ADD32R,0.0419X0.0711*%
D10*
X006006Y004037D02*
X006006Y029628D01*
X006005Y029628D02*
X006007Y029714D01*
X006012Y029800D01*
X006022Y029885D01*
X006035Y029970D01*
X006052Y030054D01*
X006072Y030138D01*
X006096Y030220D01*
X006124Y030301D01*
X006155Y030382D01*
X006189Y030460D01*
X006227Y030537D01*
X006269Y030613D01*
X006313Y030686D01*
X006361Y030757D01*
X006412Y030827D01*
X006466Y030894D01*
X006522Y030958D01*
X006582Y031020D01*
X006644Y031080D01*
X006708Y031136D01*
X006775Y031190D01*
X006845Y031241D01*
X006916Y031289D01*
X006990Y031333D01*
X007065Y031375D01*
X007142Y031413D01*
X007220Y031447D01*
X007301Y031478D01*
X007382Y031506D01*
X007464Y031530D01*
X007548Y031550D01*
X007632Y031567D01*
X007717Y031580D01*
X007802Y031590D01*
X007888Y031595D01*
X007974Y031597D01*
X007974Y031596D02*
X043407Y031596D01*
X043407Y031597D02*
X043493Y031595D01*
X043579Y031590D01*
X043664Y031580D01*
X043749Y031567D01*
X043833Y031550D01*
X043917Y031530D01*
X043999Y031506D01*
X044080Y031478D01*
X044161Y031447D01*
X044239Y031413D01*
X044316Y031375D01*
X044392Y031333D01*
X044465Y031289D01*
X044536Y031241D01*
X044606Y031190D01*
X044673Y031136D01*
X044737Y031080D01*
X044799Y031020D01*
X044859Y030958D01*
X044915Y030894D01*
X044969Y030827D01*
X045020Y030757D01*
X045068Y030686D01*
X045112Y030613D01*
X045154Y030537D01*
X045192Y030460D01*
X045226Y030382D01*
X045257Y030301D01*
X045285Y030220D01*
X045309Y030138D01*
X045329Y030054D01*
X045346Y029970D01*
X045359Y029885D01*
X045369Y029800D01*
X045374Y029714D01*
X045376Y029628D01*
X045376Y004037D01*
X045374Y003951D01*
X045369Y003865D01*
X045359Y003780D01*
X045346Y003695D01*
X045329Y003611D01*
X045309Y003527D01*
X045285Y003445D01*
X045257Y003364D01*
X045226Y003283D01*
X045192Y003205D01*
X045154Y003128D01*
X045112Y003052D01*
X045068Y002979D01*
X045020Y002908D01*
X044969Y002838D01*
X044915Y002771D01*
X044859Y002707D01*
X044799Y002645D01*
X044737Y002585D01*
X044673Y002529D01*
X044606Y002475D01*
X044536Y002424D01*
X044465Y002376D01*
X044392Y002332D01*
X044316Y002290D01*
X044239Y002252D01*
X044161Y002218D01*
X044080Y002187D01*
X043999Y002159D01*
X043917Y002135D01*
X043833Y002115D01*
X043749Y002098D01*
X043664Y002085D01*
X043579Y002075D01*
X043493Y002070D01*
X043407Y002068D01*
X043407Y002069D02*
X007974Y002069D01*
X007974Y002068D02*
X007888Y002070D01*
X007802Y002075D01*
X007717Y002085D01*
X007632Y002098D01*
X007548Y002115D01*
X007464Y002135D01*
X007382Y002159D01*
X007301Y002187D01*
X007220Y002218D01*
X007142Y002252D01*
X007065Y002290D01*
X006989Y002332D01*
X006916Y002376D01*
X006845Y002424D01*
X006775Y002475D01*
X006708Y002529D01*
X006644Y002585D01*
X006582Y002645D01*
X006522Y002707D01*
X006466Y002771D01*
X006412Y002838D01*
X006361Y002908D01*
X006313Y002979D01*
X006269Y003053D01*
X006227Y003128D01*
X006189Y003205D01*
X006155Y003283D01*
X006124Y003364D01*
X006096Y003445D01*
X006072Y003527D01*
X006052Y003611D01*
X006035Y003695D01*
X006022Y003780D01*
X006012Y003865D01*
X006007Y003951D01*
X006005Y004037D01*
D11*
X023328Y013565D03*
X023525Y013565D03*
X023722Y013565D03*
X023919Y013565D03*
X024116Y013565D03*
X024313Y013565D03*
X024509Y013565D03*
X024706Y013565D03*
X024903Y013565D03*
X025100Y013565D03*
X025297Y013565D03*
X025494Y013565D03*
X025691Y013565D03*
X025887Y013565D03*
X026084Y013565D03*
X026281Y013565D03*
X026478Y013565D03*
X026675Y013565D03*
X026872Y013565D03*
X027069Y013565D03*
X027265Y013565D03*
X027462Y013565D03*
X027659Y013565D03*
X027856Y013565D03*
X028053Y013565D03*
X028053Y020100D03*
X027856Y020100D03*
X027659Y020100D03*
X027462Y020100D03*
X027265Y020100D03*
X027069Y020100D03*
X026872Y020100D03*
X026675Y020100D03*
X026478Y020100D03*
X026281Y020100D03*
X026084Y020100D03*
X025887Y020100D03*
X025691Y020100D03*
X025494Y020100D03*
X025297Y020100D03*
X025100Y020100D03*
X024903Y020100D03*
X024706Y020100D03*
X024509Y020100D03*
X024313Y020100D03*
X024116Y020100D03*
X023919Y020100D03*
X023722Y020100D03*
X023525Y020100D03*
X023328Y020100D03*
D12*
X022423Y019194D03*
X022423Y018998D03*
X022423Y018801D03*
X022423Y018604D03*
X022423Y018407D03*
X022423Y018210D03*
X022423Y018013D03*
X022423Y017817D03*
X022423Y017620D03*
X022423Y017423D03*
X022423Y017226D03*
X022423Y017029D03*
X022423Y016832D03*
X022423Y016635D03*
X022423Y016439D03*
X022423Y016242D03*
X022423Y016045D03*
X022423Y015848D03*
X022423Y015651D03*
X022423Y015454D03*
X022423Y015257D03*
X022423Y015061D03*
X022423Y014864D03*
X022423Y014667D03*
X022423Y014470D03*
X028958Y014470D03*
X028958Y014667D03*
X028958Y014864D03*
X028958Y015061D03*
X028958Y015257D03*
X028958Y015454D03*
X028958Y015651D03*
X028958Y015848D03*
X028958Y016045D03*
X028958Y016242D03*
X028958Y016439D03*
X028958Y016635D03*
X028958Y016832D03*
X028958Y017029D03*
X028958Y017226D03*
X028958Y017423D03*
X028958Y017620D03*
X028958Y017817D03*
X028958Y018013D03*
X028958Y018210D03*
X028958Y018407D03*
X028958Y018604D03*
X028958Y018801D03*
X028958Y018998D03*
X028958Y019194D03*
D13*
X008474Y018832D03*
X007474Y018832D03*
X007474Y017832D03*
X008474Y017832D03*
X008474Y016832D03*
X008474Y015832D03*
X007474Y015832D03*
X007474Y016832D03*
X007474Y014832D03*
X008474Y014832D03*
D14*
X009474Y014832D03*
X009474Y015832D03*
X009474Y016832D03*
X009474Y017832D03*
X009474Y018832D03*
X010006Y020069D03*
X012006Y020069D03*
X013006Y019069D03*
X014006Y019069D03*
X014006Y018069D03*
X015006Y018069D03*
X016006Y018069D03*
X017006Y018069D03*
X018006Y018069D03*
X019006Y017069D03*
X020006Y018069D03*
X020006Y019069D03*
X022006Y020069D03*
X022006Y021069D03*
X023006Y022069D03*
X024006Y023069D03*
X024006Y025069D03*
X023006Y025069D03*
X022006Y025069D03*
X021006Y025069D03*
X020006Y025069D03*
X020006Y023069D03*
X021006Y023069D03*
X018006Y024069D03*
X017006Y022069D03*
X017006Y020069D03*
X018006Y020069D03*
X016006Y016069D03*
X021006Y013069D03*
X022006Y013069D03*
X024006Y011069D03*
X022006Y010069D03*
X021006Y009069D03*
X020006Y010069D03*
X020006Y007069D03*
X021006Y007069D03*
X024006Y007069D03*
X025006Y007069D03*
X027006Y007069D03*
X028006Y007069D03*
X029006Y009069D03*
X028006Y010069D03*
X027006Y009069D03*
X025006Y009069D03*
X029006Y012069D03*
X031006Y010069D03*
X034006Y009069D03*
X036006Y009069D03*
X038006Y009069D03*
X034006Y013069D03*
X036006Y014069D03*
X036006Y015069D03*
X036006Y016069D03*
X034006Y016069D03*
X032006Y015069D03*
X031006Y018069D03*
X030006Y020069D03*
X029006Y020069D03*
X032006Y021069D03*
X033006Y020069D03*
X034006Y019069D03*
X036006Y019069D03*
X036006Y020069D03*
X036006Y021069D03*
X036006Y022069D03*
X034006Y022069D03*
X039006Y022069D03*
X039006Y021069D03*
X039006Y020069D03*
X041006Y020069D03*
X041006Y021069D03*
X041006Y022069D03*
X041006Y023069D03*
X039006Y023069D03*
X043006Y027069D03*
X044006Y026069D03*
X041006Y029069D03*
X039006Y029069D03*
X034006Y028069D03*
X028006Y023069D03*
X024006Y027069D03*
X023006Y029069D03*
X022006Y029069D03*
X021006Y030069D03*
X020006Y030069D03*
X019006Y029069D03*
X014006Y025069D03*
X015006Y024069D03*
X013006Y027069D03*
X011006Y027069D03*
X009006Y026069D03*
X008006Y026069D03*
X008006Y021069D03*
X012006Y009069D03*
X011006Y007069D03*
X038006Y014069D03*
X038006Y015069D03*
X038006Y016069D03*
X038006Y017069D03*
X040006Y017069D03*
X040006Y016069D03*
X040006Y015069D03*
X040006Y014069D03*
X043006Y017069D03*
X044006Y016069D03*
X027006Y030069D03*
D15*
X025494Y029628D03*
X024706Y029628D03*
X024706Y028840D03*
X023919Y028840D03*
X023328Y030021D03*
X022541Y030021D03*
X020966Y029234D03*
X020966Y028446D03*
X022541Y026872D03*
X023328Y026872D03*
X023006Y024462D03*
X024006Y024462D03*
X024006Y023675D03*
X023006Y023675D03*
X022006Y023675D03*
X021006Y023675D03*
X020006Y023675D03*
X020006Y024462D03*
X021006Y024462D03*
X022006Y024462D03*
X019194Y021163D03*
X018407Y021163D03*
X017620Y021163D03*
X016832Y021163D03*
X016946Y016990D03*
X017734Y016990D03*
X018013Y014667D03*
X017226Y014667D03*
X017226Y013880D03*
X017620Y013289D03*
X018013Y013880D03*
X018407Y013289D03*
X018801Y013880D03*
X019194Y013289D03*
X019194Y012502D03*
X018407Y012502D03*
X017620Y012502D03*
X018801Y014667D03*
X020966Y011714D03*
X020966Y010927D03*
X021950Y010927D03*
X021950Y011714D03*
X021006Y008462D03*
X021006Y007675D03*
X020006Y007675D03*
X020006Y008462D03*
X021360Y006399D03*
X022147Y006399D03*
X022147Y005612D03*
X021360Y005612D03*
X020769Y006006D03*
X019982Y006006D03*
X019982Y005218D03*
X020769Y005218D03*
X022738Y004628D03*
X023525Y004628D03*
X024116Y005021D03*
X024116Y004234D03*
X023525Y003840D03*
X024116Y003446D03*
X023525Y003053D03*
X022738Y003053D03*
X022738Y003840D03*
X024903Y003446D03*
X024903Y004234D03*
X024903Y005021D03*
X025006Y007675D03*
X025006Y008462D03*
X024006Y008462D03*
X024006Y007675D03*
X027006Y007675D03*
X027006Y008462D03*
X028006Y008462D03*
X028006Y007675D03*
X029824Y007974D03*
X029824Y007187D03*
X030612Y007187D03*
X030612Y007974D03*
X031399Y007974D03*
X031399Y007187D03*
X033368Y007187D03*
X034155Y007187D03*
X034155Y007974D03*
X033368Y007974D03*
X034943Y007974D03*
X034943Y007187D03*
X036124Y007187D03*
X036911Y007187D03*
X036911Y007974D03*
X036124Y007974D03*
X037698Y007974D03*
X037698Y007187D03*
X038880Y007187D03*
X039667Y007187D03*
X039667Y007974D03*
X040454Y007974D03*
X040454Y007187D03*
X038880Y007974D03*
X032187Y012698D03*
X031399Y012698D03*
X030612Y012698D03*
X030612Y013486D03*
X031399Y013486D03*
X032187Y013486D03*
X034612Y015069D03*
X035399Y015069D03*
X035399Y016069D03*
X034612Y016069D03*
X034612Y019069D03*
X035399Y019069D03*
X035399Y020069D03*
X034612Y020069D03*
X034612Y021069D03*
X035399Y021069D03*
X035399Y022069D03*
X034612Y022069D03*
X031990Y022935D03*
X031202Y022935D03*
X029628Y022935D03*
X028840Y022935D03*
X029037Y021754D03*
X029824Y021360D03*
X030612Y021360D03*
X028250Y021754D03*
X032974Y026281D03*
X033761Y026281D03*
X032974Y027462D03*
X032187Y027462D03*
X032580Y029234D03*
X032580Y030021D03*
X033368Y030021D03*
X033368Y029234D03*
X036911Y028053D03*
X037698Y028053D03*
X039273Y028053D03*
X040061Y028053D03*
X025494Y030612D03*
X024706Y030612D03*
X018998Y030612D03*
X018210Y030612D03*
X012502Y029234D03*
X012502Y028446D03*
X011714Y028446D03*
X011714Y029234D03*
X010533Y029234D03*
X010533Y028446D03*
X010336Y027069D03*
X009549Y027069D03*
X009588Y020966D03*
X008801Y020966D03*
X006990Y013092D03*
X006990Y012305D03*
X006990Y008943D03*
X006990Y008155D03*
X011124Y008155D03*
X011124Y008943D03*
X011911Y012305D03*
X011911Y013092D03*
X029628Y011124D03*
X030415Y011124D03*
D16*
X028006Y007462D03*
X024006Y007462D03*
X020006Y007462D03*
X035612Y015069D03*
X035612Y020069D03*
X035612Y021069D03*
X023006Y024675D03*
X022006Y024675D03*
D17*
X021006Y024773D03*
X020006Y024773D03*
X020006Y023395D03*
X021006Y023395D03*
X024006Y023395D03*
X024006Y024773D03*
X025006Y008742D03*
X025006Y007364D03*
X027006Y007364D03*
X027006Y008742D03*
X021006Y008742D03*
X021006Y007364D03*
D18*
X034332Y016069D03*
X035710Y016069D03*
X035710Y019069D03*
X034332Y019069D03*
X034332Y022069D03*
X035710Y022069D03*
D19*
X017935Y026872D03*
X017935Y027069D03*
X017935Y027265D03*
X017935Y027462D03*
X017935Y027659D03*
X017935Y027856D03*
X017935Y028053D03*
X017935Y028250D03*
X017935Y028446D03*
X017935Y028643D03*
X017935Y028840D03*
X017935Y029037D03*
X014352Y029037D03*
X014352Y028840D03*
X014352Y028643D03*
X014352Y028446D03*
X014352Y028250D03*
X014352Y028053D03*
X014352Y027856D03*
X014352Y027659D03*
X014352Y027462D03*
X014352Y027265D03*
X014352Y027069D03*
X014352Y026872D03*
D20*
X015061Y026163D03*
X015257Y026163D03*
X015454Y026163D03*
X015651Y026163D03*
X015848Y026163D03*
X016045Y026163D03*
X016242Y026163D03*
X016439Y026163D03*
X016635Y026163D03*
X016832Y026163D03*
X017029Y026163D03*
X017226Y026163D03*
X017226Y029746D03*
X017029Y029746D03*
X016832Y029746D03*
X016635Y029746D03*
X016439Y029746D03*
X016242Y029746D03*
X016045Y029746D03*
X015848Y029746D03*
X015651Y029746D03*
X015454Y029746D03*
X015257Y029746D03*
X015061Y029746D03*
D21*
X028998Y028683D03*
X029313Y028683D03*
X029628Y028683D03*
X029943Y028683D03*
X030257Y028683D03*
D22*
X031281Y028781D03*
X031281Y030868D03*
X027974Y030868D03*
X027974Y028781D03*
D23*
X016015Y022836D03*
X015759Y022836D03*
X015504Y022836D03*
X015248Y022836D03*
X014992Y022836D03*
X014736Y022836D03*
X014480Y022836D03*
X014224Y022836D03*
X013968Y022836D03*
X013712Y022836D03*
X013712Y020277D03*
X013968Y020277D03*
X014224Y020277D03*
X014480Y020277D03*
X014736Y020277D03*
X014992Y020277D03*
X015248Y020277D03*
X015504Y020277D03*
X015759Y020277D03*
X016015Y020277D03*
D24*
X007974Y029628D03*
X007974Y004037D03*
X043407Y004037D03*
X043407Y029628D03*
D25*
X018817Y010435D03*
X018317Y010435D03*
X017817Y010435D03*
X017317Y010435D03*
X016817Y010435D03*
X014880Y010435D03*
X014380Y010435D03*
X013880Y010435D03*
X013380Y010435D03*
X012880Y010435D03*
X012880Y005513D03*
X013380Y005513D03*
X013880Y005513D03*
X014380Y005513D03*
X014880Y005513D03*
X016817Y005513D03*
X017317Y005513D03*
X017817Y005513D03*
X018317Y005513D03*
X018817Y005513D03*
D26*
X010026Y007216D03*
X008284Y007216D03*
X008284Y009519D03*
X010026Y009519D03*
X028756Y005976D03*
X030499Y005976D03*
X032103Y005976D03*
X033845Y005976D03*
X035449Y005976D03*
X037192Y005976D03*
X038796Y005976D03*
X040538Y005976D03*
X040538Y003673D03*
X038796Y003673D03*
X037192Y003673D03*
X035449Y003673D03*
X033845Y003673D03*
X032103Y003673D03*
X030499Y003673D03*
X028756Y003673D03*
D27*
X042710Y009911D03*
X043710Y009911D03*
X043710Y010911D03*
X042710Y010911D03*
X042710Y011911D03*
X043710Y011911D03*
X043710Y012911D03*
X042710Y012911D03*
X042710Y013911D03*
X043710Y013911D03*
X043710Y019360D03*
X042710Y019360D03*
X042710Y020360D03*
X042710Y021360D03*
X043710Y021360D03*
X043710Y020360D03*
X043710Y022360D03*
X042710Y022360D03*
X042710Y023360D03*
X043710Y023360D03*
X012006Y021069D03*
X011006Y021069D03*
D28*
X012285Y022419D03*
X012285Y022919D03*
X012285Y023419D03*
X012285Y023919D03*
X012285Y024419D03*
X012285Y024919D03*
X012285Y025419D03*
X009175Y025419D03*
X009175Y024919D03*
X009175Y024419D03*
X009175Y023919D03*
X009175Y023419D03*
X009175Y022919D03*
X009175Y022419D03*
D29*
X008230Y012267D03*
X008230Y011767D03*
X008230Y011267D03*
X008230Y010767D03*
X010474Y010767D03*
X010474Y011267D03*
X010474Y011767D03*
X010474Y012267D03*
X034608Y028878D03*
X034608Y029378D03*
X034608Y029878D03*
X034608Y030378D03*
X036852Y030378D03*
X036852Y029878D03*
X036852Y029378D03*
X036852Y028878D03*
D30*
X036616Y026281D03*
X040356Y026281D03*
D31*
X015076Y015191D03*
X015076Y013537D03*
X013076Y013537D03*
X013076Y015191D03*
D32*
X034820Y013072D03*
X035320Y013072D03*
X035820Y013072D03*
X036320Y013072D03*
X036820Y013072D03*
X037320Y013072D03*
X037820Y013072D03*
X037820Y009962D03*
X037320Y009962D03*
X036820Y009962D03*
X036320Y009962D03*
X035820Y009962D03*
X035320Y009962D03*
X034820Y009962D03*
M02*
